<?xml version="1.0" standalone="no"?>
<!DOCTYPE svg PUBLIC "-//W3C//DTD SVG 1.1//EN" "http://www.w3.org/Graphics/SVG/1.1/DTD/svg11.dtd" >
<svg>
<metadata>
Created by FontForge 20090622 at Tue Aug  2 14:01:00 2016
 By deploy user
Copyright 1990-1999 Bitstream Inc.  All rights reserved.
</metadata>
<defs>
<font id="CataneoBT-Light" horiz-adv-x="1024" >
  <font-face 
    font-family="Cataneo Lt BT"
    font-weight="400"
    font-style="italic"
    font-stretch="normal"
    units-per-em="2048"
    panose-1="3 2 7 2 4 5 2 6 8 4"
    ascent="1556"
    descent="-492"
    x-height="913"
    cap-height="1290"
    bbox="-780 -739 2165 1915"
    underline-thickness="100"
    underline-position="-319"
    slope="-8"
    unicode-range="U+0020-U+F002"
  />
<missing-glyph horiz-adv-x="1229" 
d="M102 -362v1806h1024v-1806h-1024zM217 -248h795v1577h-795v-1577z" />
    <glyph glyph-name=".notdef" horiz-adv-x="1229" 
d="M102 -362v1806h1024v-1806h-1024zM217 -248h795v1577h-795v-1577z" />
    <glyph glyph-name=".null" horiz-adv-x="0" 
 />
    <glyph glyph-name="nonmarkingreturn" horiz-adv-x="537" 
 />
    <glyph glyph-name="space" unicode=" " horiz-adv-x="537" 
 />
    <glyph glyph-name="exclam" unicode="!" horiz-adv-x="639" 
d="M207 174q32 0 54 -21.5t22 -52.5q0 -52 -30 -88.5t-73 -36.5q-33 0 -53.5 22t-20.5 58q0 48 30 83.5t71 35.5zM455 1069l-189 -770l-39 8q46 305 68 499t22 290q0 54 -8 74t-28 20q-9 0 -20.5 -5t-27.5 -16l-10 27q66 53 121 82t88 29q29 0 43 -17t14 -51q0 -28 -22 -120
q-8 -32 -12 -50z" />
    <glyph glyph-name="quotedbl" unicode="&#x22;" horiz-adv-x="672" 
d="M514 868h-31l-61 455q-3 18 -3.5 26.5t-0.5 16.5q0 46 21 71t61 25q38 0 59 -25.5t21 -72.5q0 -12 -4 -37q0 -2 -1 -4zM188 868h-30l-62 455v4q-4 25 -4 37q0 47 20.5 72.5t59.5 25.5t60.5 -25t21.5 -71q0 -10 -3 -36q-1 -5 -1 -7z" />
    <glyph glyph-name="numbersign" unicode="#" horiz-adv-x="1575" 
d="M700 872l-104 -294h295l104 294h-295zM793 1454h114l-172 -483h295l172 483h113l-172 -483h315l-35 -99h-315l-102 -294h340l-37 -99h-340l-170 -479h-113l170 479h-293l-172 -479h-112l170 479h-332l37 99h329l105 294h-359l35 99h359z" />
    <glyph glyph-name="dollar" unicode="$" horiz-adv-x="797" 
d="M424 553l-73 -467q94 9 153 72.5t59 156.5q0 68 -33 124.5t-106 113.5zM479 1210q-89 -9 -148 -69t-59 -140q0 -60 33.5 -113t106.5 -108zM512 1481l68 -4l-22 -100.5t-21 -102.5q27 2 44.5 3t30.5 1q97 0 148 -21.5t51 -62.5q0 -26 -22 -48t-70 -44q-23 56 -70 83
t-121 27l-73 -462q146 -106 196.5 -179t50.5 -161q0 -130 -99 -237.5t-263 -149.5q-8 -54 -15.5 -115l-17.5 -148l-65 9q13 60 25 121l24 122q-26 -4 -52 -6t-53 -2q-106 0 -163.5 29.5t-57.5 83.5q0 34 23.5 63.5t64.5 46.5q16 -69 76 -106t158 -37h14l80 504
q-131 89 -186.5 159.5t-55.5 145.5q0 131 94.5 232t253.5 139q9 66 15 119.5t10 97.5z" />
    <glyph glyph-name="percent" unicode="%" horiz-adv-x="1550" 
d="M1212 735q-88 0 -145 -126t-57 -326q0 -114 31.5 -174t91.5 -60q84 0 141 128t57 327q0 114 -30 172.5t-89 58.5zM1274 805q99 0 146.5 -59t47.5 -183q0 -242 -127.5 -416t-287.5 -174q-87 0 -130.5 64t-43.5 190q0 240 119.5 409t275.5 169zM418 1231q-89 0 -146 -126
t-57 -327q0 -113 32 -173t91 -60q85 0 142 127.5t57 326.5q0 115 -30 173.5t-89 58.5zM479 1300q99 0 147 -60t48 -183q0 -242 -128 -417t-288 -175q-86 0 -130 65t-44 193q0 240 119.5 408.5t275.5 168.5zM1178 1343l90 -59l-436 -632.5l-461 -704.5l-90 65l464 666z" />
    <glyph glyph-name="ampersand" unicode="&#x26;" horiz-adv-x="1716" 
d="M516 555q-80 0 -125 -6t-75 -20q1 -199 120 -319t314 -120q196 0 320 122.5t140 334.5zM627 623q0 7 2 23.5t2 21.5q0 57 -30 88.5t-83 31.5q-79 0 -134 -63.5t-69 -171.5l72 37q36 18 82 25.5t158 7.5zM1325 635q18 -2 25 -2h30q140 0 198 30t58 101q0 26 -13 56t-37 63
q18 9 29 12.5t19 3.5q33 0 53.5 -24.5t20.5 -63.5q0 -111 -105 -187.5t-268 -76.5h-22q-54 -247 -246.5 -409.5t-425.5 -162.5q-188 0 -303 119t-115 316q0 188 107.5 315t257.5 127q80 0 129 -44.5t49 -117.5q0 -14 -2.5 -30t-7.5 -35l454 4q-4 261 -174 423t-438 162
q-202 0 -336.5 -85t-134.5 -211q0 -38 13.5 -69.5t41.5 -62.5q-17 -6 -31 -9t-26 -3q-36 0 -58 27.5t-22 72.5q0 52 31 111t90 121q97 100 227.5 149.5t298.5 49.5q292 0 462.5 -172t170.5 -469v-29z" />
    <glyph glyph-name="quotesingle" unicode="'" horiz-adv-x="346" 
d="M188 868h-30l-62 455v4q-4 25 -4 37q0 47 20.5 72.5t59.5 25.5t59.5 -24.5t20.5 -71.5q0 -16 -0.5 -25t-1.5 -17z" />
    <glyph glyph-name="parenleft" unicode="(" horiz-adv-x="551" 
d="M762 1610l10 -35q-261 -137 -409 -432t-148 -682q0 -220 50 -404.5t151 -332.5q-14 -8 -28 -11.5t-32 -3.5q-109 0 -188.5 207t-79.5 512q0 415 179 728.5t495 453.5z" />
    <glyph glyph-name="parenright" unicode=")" horiz-adv-x="551" 
d="M-207 -299l-10 37q261 137 409 431t148 681q0 219 -51 405.5t-151 334.5q12 6 25 9t36 3q109 0 188.5 -207t79.5 -512q0 -415 -179 -728.5t-495 -453.5z" />
    <glyph glyph-name="asterisk" unicode="*" horiz-adv-x="807" 
d="M467 1327q27 -19 40 -34.5t13 -28.5q0 -6 -1.5 -19.5t-2.5 -21.5l-22 -234l211 92q18 9 30.5 14t16.5 5q14 0 30 -7.5t37 -23.5q-17 -67 -73 -80q-5 -1 -9 -2l-227 -51l156 -175l3 -3q29 -32 29 -51q0 -12 -3 -25t-11 -33h-16q-53 0 -79 48q-4 7 -5 9l-117 199l-117 -199
q-1 -2 -5 -9q-26 -48 -79 -48h-16q-8 20 -11 33t-3 25q0 19 28 50q3 3 4 5l154 174l-225 51l-8 2q-59 13 -76 80q21 16 37 23.5t30 7.5q4 0 16.5 -5t30.5 -14l213 -92l-24 233q-1 9 -1.5 18t-0.5 24t13.5 31t39.5 32z" />
    <glyph glyph-name="plus" unicode="+" horiz-adv-x="1706" 
d="M805 1221h98v-562h549v-98h-549v-561h-98v561h-551v98h551v562z" />
    <glyph glyph-name="comma" unicode="," horiz-adv-x="508" 
d="M55 -252l-26 23q49 56 70.5 102.5t21.5 95.5q0 36 -12 68t-37 63l78 68l7 7q15 13 25 13q28 0 48 -38.5t20 -96.5q0 -61 -45.5 -133t-149.5 -172z" />
    <glyph glyph-name="hyphen" unicode="-" horiz-adv-x="664" 
d="M545 553l14 -23q-76 -65 -128 -91.5t-99 -26.5q-25 0 -88.5 10t-100.5 10q-29 0 -57.5 -7.5t-62.5 -25.5l-17 23q79 67 130 94t97 27q27 0 87.5 -11.5t93.5 -11.5q37 0 68.5 8t62.5 25z" />
    <glyph glyph-name="period" unicode="." horiz-adv-x="508" 
d="M176 174q32 0 53 -21t21 -53q0 -52 -30 -88.5t-73 -36.5q-33 0 -53 22t-20 58q0 48 30.5 83.5t71.5 35.5z" />
    <glyph glyph-name="slash" unicode="/" horiz-adv-x="551" 
d="M506 1606l108 -27l-271 -932.5l-277 -980.5l-109 25l289.5 983z" />
    <glyph glyph-name="zero" unicode="0" horiz-adv-x="1071" 
d="M608 1221q-166 0 -271.5 -211.5t-105.5 -550.5q0 -189 59 -288t171 -99q159 0 264.5 215t105.5 547q0 191 -56 289t-167 98zM68 385q0 220 70 415t194 322q86 88 183.5 134.5t195.5 46.5q145 0 219 -98t74 -290q0 -194 -57 -373.5t-159 -308.5q-92 -117 -213 -187.5
t-229 -70.5q-136 0 -207 104.5t-71 305.5z" />
    <glyph glyph-name="one" unicode="1" horiz-adv-x="721" 
d="M526 1305l25 -13q-52 -236 -94.5 -547.5t-73.5 -681.5l254 -30l-2 -43q-65 1 -185 5.5t-163 4.5q-45 0 -120 -2t-220 -8l6 43l254 30q51 240 91.5 517t68.5 583q-66 -21 -127 -36.5t-121 -26.5l4 39q116 30 215.5 71t187.5 95z" />
    <glyph glyph-name="two" unicode="2" horiz-adv-x="981" 
d="M137 129h7q141 8 206 8q53 0 137.5 -2t114.5 -2q109 0 148.5 33.5t66.5 140.5h41q-12 -40 -30 -107q-55 -200 -144 -200q-42 0 -185.5 7t-244.5 7q-62 0 -129.5 -3t-157.5 -11l-8 35q388 315 568 541t180 397q0 108 -62 176t-158 68q-89 0 -150 -57.5t-61 -139.5
q0 -42 8 -74t25 -59q-13 -7 -24 -10t-23 -3q-40 0 -66 28t-26 71q0 113 137 222.5t281 109.5q135 0 213 -76t78 -205q0 -250 -667 -830z" />
    <glyph glyph-name="three" unicode="3" horiz-adv-x="967" 
d="M463 700q159 -6 245.5 -82t86.5 -210q0 -183 -156 -305.5t-393 -122.5q-134 0 -211.5 41.5t-77.5 111.5q0 38 26 69t70 46q5 -102 70 -158.5t178 -56.5q140 0 228.5 93t88.5 239q0 143 -82 217.5t-241 74.5l18 41q165 23 262 116.5t97 227.5q0 88 -56 145.5t-141 57.5
q-86 0 -143.5 -53.5t-57.5 -134.5q0 -14 2.5 -31t7.5 -40q-9 -5 -18 -7t-18 -2q-34 0 -58 27.5t-24 68.5q0 94 106.5 159.5t264.5 65.5q144 0 224.5 -61t80.5 -170q0 -112 -100.5 -210t-278.5 -157z" />
    <glyph glyph-name="four" unicode="4" horiz-adv-x="1020" 
d="M680 1202q-130 -195 -275.5 -368.5t-291.5 -309.5q55 14 145.5 20.5t222.5 6.5h101q29 212 53.5 375t44.5 276zM809 1305l27 -7q-31 -97 -63 -292t-62 -461q11 -1 25 -1.5t38 -0.5q72 0 106.5 15.5t43.5 51.5h32q-8 -29 -19 -74q-26 -104 -99 -104q-5 0 -52 1.5t-89 2.5
q-12 -86 -20 -183t-13 -207l-66.5 -32t-77.5 -41l-28 15q20 83 39 191t40 263l-113.5 5t-58.5 2q-119 0 -216.5 -6t-157.5 -17l-25 63q198 193 358.5 384t274.5 368l66.5 23z" />
    <glyph glyph-name="five" unicode="5" horiz-adv-x="944" 
d="M856 1331h33q-16 -120 -67.5 -157t-227.5 -37q-48 0 -107 3t-155 11q-5 -109 -23 -212t-49 -202q53 20 107 29.5t112 9.5q160 0 245 -75.5t85 -217.5q0 -205 -173.5 -354t-408.5 -149q-121 0 -195.5 42.5t-74.5 110.5q0 38 26 69t70 45q3 -94 67.5 -151t170.5 -57
q155 0 254.5 112.5t99.5 288.5q0 128 -67 198.5t-189 70.5q-55 0 -107.5 -14.5t-109.5 -45.5l-20 15q44 107 67 225.5t23 236.5q0 18 -0.5 36.5t-1.5 39.5q23 18 44 39.5t42 50.5q37 -10 92.5 -14t195.5 -4q151 0 193 12.5t49 44.5z" />
    <glyph glyph-name="six" unicode="6" horiz-adv-x="999" 
d="M739 473q0 115 -50 178.5t-142 63.5q-126 0 -222 -117.5t-96 -280.5q0 -121 58.5 -195.5t152.5 -74.5q122 0 210.5 125.5t88.5 300.5zM879 1135q-34 44 -74 64t-96 20q-161 0 -279.5 -166t-179.5 -475q94 113 200.5 174t211.5 61q108 0 169.5 -71.5t61.5 -196.5
q0 -229 -168.5 -398.5t-382.5 -169.5q-128 0 -197 88t-69 250q0 233 84.5 444.5t232.5 348.5q99 90 215 143.5t211 53.5q52 0 82.5 -19t30.5 -51q0 -25 -13.5 -50.5t-39.5 -49.5z" />
    <glyph glyph-name="seven" unicode="7" horiz-adv-x="868" 
d="M997 1284l15 -29q-283 -200 -459.5 -531t-200.5 -712q-44 -11 -82 -27.5t-71 -37.5l-31 22q41 332 205.5 634.5t445.5 561.5q-44 -9 -102.5 -13.5t-165.5 -4.5h-164h-16q-126 0 -165 -20t-56 -72h-39l7 22q69 207 173 207q38 0 182 -5t250 -5h70q64 0 113.5 2.5t90.5 7.5
z" />
    <glyph glyph-name="eight" unicode="8" horiz-adv-x="948" 
d="M391 639q-116 -60 -177.5 -152.5t-61.5 -205.5t67 -180.5t178 -67.5q123 0 205 77.5t82 192.5q0 103 -69 182.5t-224 153.5zM592 694q121 -72 177 -151.5t56 -177.5q0 -156 -144.5 -270.5t-350.5 -114.5q-144 0 -223.5 69.5t-79.5 194.5q0 119 82 224.5t245 195.5
q-85 54 -126.5 121.5t-41.5 152.5q0 154 119.5 259.5t296.5 105.5q134 0 209.5 -66.5t75.5 -183.5q0 -98 -74.5 -188.5t-220.5 -170.5zM549 717q101 54 156 137.5t55 183.5q0 98 -57.5 157.5t-151.5 59.5q-97 0 -163 -72t-66 -177q0 -89 48.5 -152.5t178.5 -136.5z" />
    <glyph glyph-name="nine" unicode="9" horiz-adv-x="995" 
d="M88 150q28 -47 75.5 -72t108.5 -25q178 0 305 180t173 500q-95 -106 -195 -162.5t-195 -56.5q-103 0 -167 66.5t-64 173.5q0 226 156.5 386t371.5 160q137 0 202 -83t65 -259q0 -236 -86.5 -448t-235.5 -344q-105 -93 -221.5 -143t-228.5 -50q-57 0 -88 20t-31 56
q0 21 14.5 47.5t40.5 53.5zM563 1233q-124 0 -204 -110.5t-80 -282.5q0 -109 49 -172.5t133 -63.5q120 0 214.5 110.5t94.5 266.5q0 116 -56.5 184t-150.5 68z" />
    <glyph glyph-name="colon" unicode=":" horiz-adv-x="508" 
d="M176 174q32 0 53 -21t21 -53q0 -52 -30 -88.5t-73 -36.5q-33 0 -53 22t-20 58q0 48 30.5 83.5t71.5 35.5zM268 776q32 0 53 -21t21 -53q0 -52 -30 -88t-72 -36q-34 0 -54 21.5t-20 57.5q0 48 30.5 83.5t71.5 35.5z" />
    <glyph glyph-name="semicolon" unicode=";" horiz-adv-x="508" 
d="M55 -252l-26 23q49 56 70.5 102.5t21.5 95.5q0 36 -12 68t-37 63l78 68l7 7q15 13 25 13q28 0 48 -38.5t20 -96.5q0 -61 -45.5 -133t-149.5 -172zM268 776q32 0 53 -21t21 -53q0 -52 -30 -88t-72 -36q-34 0 -54 21.5t-20 57.5q0 48 30.5 83.5t71.5 35.5z" />
    <glyph glyph-name="less" unicode="&#x3c;" horiz-adv-x="1706" 
d="M1442 1135v-109l-1022 -416l1022 -413v-109l-1178 481v82z" />
    <glyph glyph-name="equal" unicode="=" horiz-adv-x="1706" 
d="M254 473h1198v-98h-1198v98zM254 846h1198v-98h-1198v98z" />
    <glyph glyph-name="greater" unicode="&#x3e;" horiz-adv-x="1706" 
d="M264 1135l1178 -484v-82l-1178 -481v109l1022 413l-1022 416v109z" />
    <glyph glyph-name="question" unicode="?" horiz-adv-x="883" 
d="M262 174q32 0 53 -21t21 -53q0 -52 -30 -88.5t-73 -36.5q-33 0 -53 22t-20 58q0 48 30.5 83.5t71.5 35.5zM334 334q-16 -19 -32 -33t-31 -22q-33 16 -49.5 50.5t-16.5 84.5q0 135 224 325l6 5q139 117 178.5 185.5t39.5 151.5q0 84 -41 131.5t-114 47.5q-69 0 -110.5 -36
t-41.5 -96q0 -21 6.5 -44t18.5 -46q-23 -12 -40.5 -17t-35.5 -5q-39 0 -61.5 22.5t-22.5 61.5q0 81 86 143t209 62q131 0 210 -70.5t79 -187.5q0 -75 -34.5 -137.5t-109.5 -123.5q-51 -41 -148.5 -97t-121.5 -71q-62 -38 -88.5 -77t-26.5 -90q0 -40 16.5 -68.5t51.5 -48.5z
" />
    <glyph glyph-name="at" unicode="@" horiz-adv-x="2019" 
d="M1192 340q-59 -106 -138 -160.5t-173 -54.5q-121 0 -196 92.5t-75 243.5q0 106 49 213t138 194q67 66 144 102t151 36q86 0 142.5 -51t78.5 -148l55 182h131l-170 -606q-11 -39 -14.5 -61.5t-3.5 -42.5q0 -54 26 -82.5t74 -28.5q47 0 108.5 30t114.5 81q93 88 145 219
t52 278q0 284 -194 457.5t-511 173.5q-176 0 -328.5 -58.5t-271.5 -170.5q-133 -126 -201.5 -296t-68.5 -376q0 -176 56 -304.5t177 -232.5q116 -100 264.5 -151t321.5 -51q167 0 323.5 53t293.5 155l30 -34q-147 -109 -311.5 -164.5t-341.5 -55.5q-189 0 -340.5 46
t-273.5 139q-151 115 -229.5 275.5t-78.5 355.5q0 204 86 380t250 312q132 110 290.5 165.5t340.5 55.5q345 0 552.5 -187t207.5 -497q0 -157 -58 -295t-165 -235q-59 -55 -123.5 -83t-130.5 -28q-96 0 -147.5 54t-57.5 161zM1094 969q-56 0 -101.5 -31t-93.5 -102
q-73 -111 -116.5 -236t-43.5 -221t43 -152.5t115 -56.5q67 0 129 44.5t119 133.5q57 91 91 199.5t34 200.5q0 95 -50.5 158t-125.5 63z" />
    <glyph glyph-name="A" unicode="A" horiz-adv-x="1276" 
d="M686 1153l-174.5 -323l-146.5 -289h448q-32 177 -63.5 327t-63.5 285zM813 1337q22 -223 88.5 -558.5t167.5 -721.5l162 -32l-12 -35q-80 6 -191 9q-33 0 -47 1q-61 0 -127.5 -2.5t-136.5 -7.5l14 35l155 32q-3 69 -16.5 163.5t-46.5 273.5h-481q-97 -200 -133.5 -288
t-50.5 -149l166 -32l-15 -35q-66 5 -139 7.5t-74 2.5q-62 0 -124 -2.5t-123 -7.5l14 35l145 32q288 466 482 826t194 411v4z" />
    <glyph glyph-name="B" unicode="B" horiz-adv-x="1237" 
d="M362 68q70 -15 126 -22t102 -7q145 0 227 99t82 274q0 135 -70.5 200.5t-216.5 65.5q-29 0 -68 -3t-116 -11q-22 -139 -38 -286t-28 -310zM701 721q198 -5 285 -71.5t87 -213.5q0 -197 -150.5 -322.5t-390.5 -125.5q-45 0 -153.5 6t-171.5 6q-66 0 -119 -2.5t-100 -7.5
l14 33l176 34q68 332 108.5 625.5t53.5 540.5l-182 32l14 39q54 -10 111 -15t116 -5q81 0 218.5 10t193.5 10q136 0 201 -52.5t65 -162.5q0 -134 -98.5 -228t-277.5 -130zM443 741q18 -1 36 -1.5t49 -0.5q191 0 287 77.5t96 230.5q0 94 -55.5 143t-163.5 49q-58 0 -95 -6.5
t-71 -20.5q-24 -102 -44.5 -218t-38.5 -253z" />
    <glyph glyph-name="C" unicode="C" horiz-adv-x="1085" 
d="M975 1030l-6 2q-10 93 -75.5 144t-174.5 51q-218 0 -346.5 -194t-128.5 -527q0 -202 98.5 -319t269.5 -117q84 0 167.5 25.5t174.5 80.5l-6 -59q-107 -70 -225 -106t-242 -36q-194 0 -299.5 121t-105.5 344q0 177 59 338t168 281q108 118 244 182t280 64q119 0 195 -37
t76 -92q0 -43 -103 -129z" />
    <glyph glyph-name="D" unicode="D" horiz-adv-x="1417" 
d="M-12 -10l14 33l176 34q68 332 108.5 625.5t53.5 540.5l-182 32l14 35q89 -7 159.5 -10.5t119.5 -3.5q69 0 213.5 11t220.5 11q227 0 341.5 -118t114.5 -353q0 -184 -65.5 -346.5t-188.5 -281.5q-108 -108 -249 -158.5t-330 -50.5q-49 0 -141.5 5t-137.5 5
q-33 0 -88.5 -2.5t-152.5 -7.5zM365 74q70 -12 128.5 -17.5t108.5 -5.5q284 0 428 181t144 540q0 229 -99.5 348t-288.5 119q-45 0 -108 -7t-152 -22q-62 -272 -102.5 -556.5t-58.5 -579.5z" />
    <glyph glyph-name="E" unicode="E" horiz-adv-x="1143" 
d="M172 1288q105 -8 200 -12t185 -4q194 0 399 13q45 3 56 3q22 0 30.5 -5t8.5 -19q0 -12 -2.5 -25.5t-6.5 -26.5l-38 -153l-37 -6l6 53q1 11 2.5 23l1.5 12q0 32 -83 47t-370 26q-25 -117 -48.5 -246.5t-43.5 -267.5h78h59q82 0 137.5 2t108.5 7l39 96l43 20
q-26 -91 -44 -172.5t-28 -160.5l-39 -25l9 151q-88 9 -181.5 13t-191.5 4q-23 -154 -37 -297t-18 -274q13 -1 44 -2t48 -1q117 0 227 9.5t178 23.5q45 9 61.5 18t32.5 42l37 75l39 11l-61 -201q-12 -38 -19 -44.5t-26 -6.5q-8 0 -49 2q-223 10 -449 10q-174 0 -266.5 -3
t-175.5 -9l14 35l176 34q67 330 107.5 622.5t54.5 543.5l-182 32z" />
    <glyph glyph-name="F" unicode="F" horiz-adv-x="1075" 
d="M173 1290q79 -9 158.5 -13.5t160.5 -4.5q259 0 504 11q35 1 42 1q27 0 34 -4t7 -16q0 -9 -2.5 -22t-7.5 -30l-39 -153l-37 -6l8 52q2 12 3.5 24l1.5 12q0 34 -100.5 49t-379.5 18q-25 -106 -49 -234t-45 -274h53h84h95q44 0 88.5 2.5t89.5 6.5l39 96l43 24
q-27 -90 -44.5 -172t-27.5 -161l-39 -27l8 143q-76 12 -174 17.5t-227 5.5q-22 -159 -35.5 -302.5t-19.5 -275.5l200 -34l-16 -33q-76 5 -148 7.5t-141 2.5q-87 0 -148.5 -2.5t-123.5 -7.5l14 33l176 34q68 332 108.5 625.5t53.5 540.5l-182 32z" />
    <glyph glyph-name="G" unicode="G" horiz-adv-x="1266" 
d="M1012 1032l-8 4q-8 92 -76.5 142.5t-184.5 50.5q-236 0 -373 -194.5t-137 -534.5q0 -202 98.5 -316t272.5 -114q60 0 126 14.5t140 44.5q12 92 21.5 183.5t15.5 181.5l-157 30l14 33q102 -9 147.5 -11.5t79.5 -2.5q48 0 108 3.5t127 10.5l-14 -33l-137 -30
q-17 -81 -26 -162t-11 -166q-174 -99 -304 -145t-234 -46q-199 0 -316.5 128.5t-117.5 349.5q0 181 73 354t201 293q108 101 238.5 153t275.5 52q124 0 202.5 -37t78.5 -92q0 -44 -106 -130z" />
    <glyph glyph-name="H" unicode="H" horiz-adv-x="1522" 
d="M172 1290q26 -2 72 -5q148 -11 200 -11q53 0 201 11q46 3 71 5l-14 -35l-176 -32q-23 -105 -46 -236.5t-46 -290.5h674q20 153 33 283t18 243l-184 33l16 35q27 -2 75 -5q144 -11 196 -11t200 11q46 3 72 5l-14 -35l-177 -32q-69 -332 -109.5 -625.5t-51.5 -539.5
l184 -33l-17 -35q-71 5 -138.5 7.5t-133.5 2.5q-62 0 -129 -2.5t-141 -7.5l12 35l178 32q27 127 52 273.5t49 318.5h-674q-27 -190 -41 -332t-18 -260l182 -32l-15 -35q-71 5 -138.5 7.5t-133.5 2.5q-63 0 -131 -2.5t-141 -7.5l14 35l176 32q68 332 108.5 625.5t53.5 540.5
l-182 32z" />
    <glyph glyph-name="I" unicode="I" horiz-adv-x="705" 
d="M-12 -10l14 35l176 32q68 332 108.5 625.5t53.5 540.5l-182 32l14 35q91 -8 158 -12t116 -4q54 0 203 11q45 4 67 5l-14 -35l-176 -32q-69 -332 -109.5 -625.5t-51.5 -540.5l184 -32l-17 -35q-73 5 -141 7.5t-129 2.5q-90 0 -151.5 -2.5t-122.5 -7.5z" />
    <glyph glyph-name="J" unicode="J" horiz-adv-x="711" 
d="M172 1290q26 -2 72 -5q148 -11 200 -11q53 0 201 11q46 3 71 5l-14 -35l-176 -32q-77 -375 -133 -803t-71 -483q-39 -137 -133 -228t-265 -158l-12 35q113 47 175.5 133.5t92.5 241.5q44 221 87 554.5t73 707.5l-182 32z" />
    <glyph glyph-name="K" unicode="K" horiz-adv-x="1290" 
d="M172 1290q26 -2 72 -5q148 -11 200 -11t202 11q47 4 70 5l-14 -35l-176 -32q-25 -115 -50 -254t-52 -320q207 153 360.5 295.5t259.5 278.5l-129 32l17 35q58 -8 108 -12t95 -4t97 4t111 12l-18 -35l-108 -32q-179 -127 -488 -399l-74 -64q201 -378 342.5 -554
t247.5 -181l-18 -35h-140q-72 0 -104 12t-63 51q-67 81 -170 243.5t-215 369.5l-121 -91q-20 -140 -32.5 -269.5t-16.5 -248.5l182 -34l-15 -33q-62 5 -123 7.5t-149 2.5q-87 0 -148.5 -2.5t-123.5 -7.5l14 33l176 34q68 332 108.5 625.5t53.5 540.5l-182 32z" />
    <glyph glyph-name="L" unicode="L" horiz-adv-x="1100" 
d="M172 1290q26 -2 72 -5q148 -11 200 -11q53 0 201 11q46 3 71 5l-14 -35l-176 -32q-68 -322 -107 -614t-48 -549l100 -1q258 0 367 20.5t131 70.5l43 96l39 10l-64 -217q-10 -35 -17.5 -43t-27.5 -8q-7 0 -42 1q-227 11 -466 11q-181 0 -274 -3t-172 -9l14 35l176 34
q68 332 108.5 625.5t53.5 540.5l-182 32z" />
    <glyph glyph-name="M" unicode="M" horiz-adv-x="1749" 
d="M-100 -10l14 33l176 34q85 214 167.5 503t164.5 663l-184 32l16 33q56 -7 114.5 -10.5t123.5 -3.5q43 0 64.5 0.5t38.5 1.5q30 -221 81 -473t131 -559l387 663q87 148 179 366l2 3q20 -1 45 -1.5t73 -0.5q74 0 138 3.5t122 10.5l-14 -33l-178 -32q-43 -255 -64.5 -516
t-21.5 -521q0 -21 1 -64t1 -65l188 -34l-15 -33q-62 5 -124 7.5t-146 2.5q-89 0 -148.5 -2.5t-116.5 -7.5l13 33l177 34q36 344 57.5 609t27.5 472q-31 -47 -98 -158.5l-147 -250.5l-154 -264q-59 -100 -103.5 -193.5t-70.5 -169.5l-119 -69q-13 145 -99.5 514.5
t-123.5 595.5q-102 -351 -157 -608t-76 -478l174 -34l-15 -33q-69 5 -132 7.5t-113 2.5q-56 0 -121 -2.5t-135 -7.5z" />
    <glyph glyph-name="N" unicode="N" horiz-adv-x="1464" 
d="M166 1290q67 -8 108.5 -11t73.5 -3q37 0 71 3.5t70 10.5q159 -353 313 -647t269 -465q39 276 58.5 529.5t19.5 470.5v45l-182 32l17 35q72 -7 135 -10.5t110 -3.5q39 0 94.5 3t161.5 11l-15 -35l-176 -32q-74 -335 -115 -636t-47 -548l-118 -66l-314 601.5l-303 533.5
q-41 -258 -61.5 -521.5t-20.5 -529.5l183 -32l-15 -35q-56 5 -112.5 7.5t-132.5 2.5q-84 0 -141 -2.5t-115 -7.5l14 35l176 32q63 293 104 585.5t58 580.5l-184 32z" />
    <glyph glyph-name="O" unicode="O" horiz-adv-x="1274" 
d="M694 1227q-205 0 -327.5 -200.5t-122.5 -541.5q0 -212 81.5 -320t241.5 -108q203 0 326 192.5t123 508.5q0 238 -79.5 353.5t-242.5 115.5zM788 1305q197 0 298.5 -117.5t101.5 -345.5q0 -178 -58.5 -339t-166.5 -282q-107 -119 -236.5 -182.5t-265.5 -63.5
q-187 0 -286 120.5t-99 346.5q0 161 47.5 307.5t136.5 262.5q102 133 247 213t281 80z" />
    <glyph glyph-name="P" unicode="P" horiz-adv-x="1090" 
d="M416 573q-23 -173 -35 -298t-14 -218l182 -32l-14 -33q-46 4 -93 6t-123 2h-57h-61q-76 0 -122 -2t-89 -6l14 33l176 32q67 331 108 625.5t54 542.5l-182 32l14 33q67 -7 131 -10.5t123 -3.5q69 0 188.5 8t169.5 8q138 0 208.5 -68.5t70.5 -201.5q0 -200 -146 -328.5
t-372 -128.5q-35 0 -67 2t-64 6zM520 1217q-20 -107 -42.5 -243l-51.5 -325q39 -12 78.5 -18t77.5 -6q150 0 235.5 107t85.5 292q0 108 -51 161.5t-154 53.5q-43 0 -86.5 -5.5t-91.5 -16.5z" />
    <glyph glyph-name="Q" unicode="Q" horiz-adv-x="1274" 
d="M805 86q163 -210 342.5 -334.5t314.5 -124.5q25 0 49.5 3t47.5 10l8 -31q-59 -21 -116.5 -32t-113.5 -11q-138 0 -303 107t-381 337q-49 -18 -97.5 -26.5t-100.5 -8.5q-183 0 -281 121t-98 346q0 177 58.5 336.5t166.5 280.5q104 116 237 181t267 65q184 0 283.5 -120
t99.5 -341q0 -246 -98.5 -441.5t-284.5 -316.5zM694 1227q-205 0 -327.5 -200.5t-122.5 -541.5q0 -212 81.5 -320t241.5 -108q203 0 326 192.5t123 508.5q0 238 -79.5 353.5t-242.5 115.5z" />
    <glyph glyph-name="R" unicode="R" horiz-adv-x="1280" 
d="M428 670q4 -1 11 -2q66 -11 96 -11q182 0 282.5 96.5t100.5 270.5q0 109 -53 162t-163 53q-47 0 -89.5 -5.5t-86.5 -16.5q-29 -130 -53.5 -266.5t-44.5 -280.5zM178 57q68 332 108.5 625.5t53.5 540.5l-182 32l14 39q53 -10 109.5 -15t117.5 -5q85 0 219 10t185 10
q134 0 207 -66t73 -188q0 -130 -81 -229t-238 -160q147 -347 243.5 -487.5t182.5 -140.5q3 0 9 1t9 1l-14 -35h-137q-75 0 -109.5 14t-60.5 51q-53 76 -126 222t-153 335q-49 -5 -87.5 -7.5t-69.5 -2.5h-29q-25 -155 -39 -289.5t-18 -255.5l182 -34l-15 -33q-62 5 -123 7.5
t-149 2.5q-87 0 -148.5 -2.5t-123.5 -7.5l14 33z" />
    <glyph glyph-name="S" unicode="S" horiz-adv-x="930" 
d="M774 1057l-8 2v4q0 81 -49.5 125.5t-138.5 44.5q-99 0 -164.5 -64t-65.5 -159q0 -68 37.5 -124.5t149.5 -142.5q145 -110 190 -182t45 -164q0 -168 -146.5 -294t-347.5 -126q-121 0 -195.5 36.5t-74.5 92.5q0 45 107 140l14 12h8q9 -94 71 -148.5t161 -54.5
q116 0 190 73.5t74 188.5q0 73 -38.5 132.5t-172.5 164.5q-132 104 -170.5 165.5t-38.5 135.5q0 160 135 275t324 115q99 0 163 -29.5t64 -73.5q0 -19 -25 -49.5t-98 -95.5z" />
    <glyph glyph-name="T" unicode="T" horiz-adv-x="1128" 
d="M1174 1214l-44 -172l-32 -6l12 70v2q0 4 1 18.5t1 24.5q0 29 -89.5 45t-299.5 25q-65 -307 -104.5 -598t-53.5 -566l185 -34l-17 -33q-63 5 -125 7.5t-147 2.5q-89 0 -149 -2.5t-121 -7.5l12 33l178 34q69 339 108.5 626.5t51.5 536.5q-42 -1 -114 -4q-253 -8 -292 -92
l-39 -80l-37 -8l58 199q18 63 53 63q4 0 26 -1q207 -17 455 -17q155 0 318 9t172 9q23 0 32 -5t9 -19q0 -16 -2 -30.5t-6 -29.5z" />
    <glyph glyph-name="U" unicode="U" horiz-adv-x="1384" 
d="M121 1255l16 35q78 -7 146 -10.5t127 -3.5q38 0 91 2.5t179 11.5l-14 -35l-170 -32q-65 -257 -100.5 -489.5t-35.5 -385.5q0 -156 71.5 -229.5t223.5 -73.5q126 0 213.5 47.5t135.5 143.5q38 78 64 292.5t26 485.5q0 83 -2 126.5t-7 82.5l-190 32l17 35
q76 -7 140.5 -10.5t112.5 -3.5q40 0 96 3t162 11l-14 -35l-170 -32q-47 -206 -86 -490.5t-55 -355.5q-50 -217 -162 -309.5t-320 -92.5q-202 0 -301.5 87t-99.5 264q0 75 43 369.5t43 512.5v15z" />
    <glyph glyph-name="V" unicode="V" horiz-adv-x="1262" 
d="M25 1255l14 35q69 -8 129 -12t104 -4q61 0 218 12q34 3 50 4l-14 -35l-153 -32q22 -224 75.5 -491.5t137.5 -571.5q227 424 359 700.5t149 362.5l-164 32l12 33q69 -7 125 -10.5t98 -3.5q45 0 175 11q40 3 62 5l-11 -35l-148 -32q-91 -129 -268 -444.5l-418 -776.5
l-111 -29q-22 195 -90.5 527.5t-167.5 722.5z" />
    <glyph glyph-name="W" unicode="W" horiz-adv-x="1839" 
d="M1085 1305v-33q0 -174 41.5 -469.5t118.5 -667.5q143 308 249.5 583.5t170.5 504.5l-164 32l12 35q65 -8 121.5 -12t102.5 -4q45 0 175 11q40 3 62 5l-12 -35l-162 -32q-113 -215 -247.5 -516.5t-278.5 -663.5l-160 -70q-10 141 -50 400.5t-103 595.5
q-105 -210 -209 -442t-205 -482l-156 -72q-15 204 -66.5 524t-136.5 726l-161 32l12 35q69 -8 129 -12t108 -4q47 0 109.5 4t149.5 12l-13 -35l-157 -32q10 -209 49 -477t110 -610l5 10q419 922 419 1056q0 24 -0.5 36.5t-0.5 23.5z" />
    <glyph glyph-name="X" unicode="X" horiz-adv-x="1161" 
d="M170 1290q87 -6 151.5 -9t108.5 -3q58 0 215 9l57 3l-14 -35l-158 -28q20 -111 49.5 -224.5t67.5 -230.5q118 148 201.5 269t114.5 186l-134 28l13 35q71 -6 127.5 -9t95.5 -3q40 0 93.5 3t119.5 9l-14 -35l-134 -28q-49 -42 -174.5 -181.5l-289.5 -336.5
q77 -256 127.5 -404.5t93.5 -247.5l168 -32l-17 -35q-60 5 -119.5 7.5t-140.5 2.5q-89 0 -150 -2.5t-122 -7.5l14 35l168 32q-14 91 -49 224.5t-92 314.5q-130 -151 -229.5 -290t-155.5 -249l125 -32l-17 -35q-48 5 -99 7.5t-132 2.5q-55 0 -101.5 -2.5t-94.5 -7.5l18 35
l139 32q79 76 214.5 231.5l309.5 370.5q-45 155 -92 297t-96 271l-182 28z" />
    <glyph glyph-name="Y" unicode="Y" horiz-adv-x="1128" 
d="M49 1292q100 -8 150 -11t86 -3q48 0 109.5 3.5t133.5 10.5l-14 -32l-141 -33q44 -152 209 -550l18 -44l38 55q258 368 339 539l-123 33l16 32q86 -8 127.5 -11t71.5 -3q44 0 94.5 3.5t105.5 10.5l-14 -32l-139 -33q-143 -162 -264.5 -321t-216.5 -308
q-22 -145 -35.5 -279.5t-19.5 -263.5l178 -32l-13 -33q-62 5 -124 7.5t-148 2.5q-89 0 -150 -2.5t-122 -7.5l14 33l182 32q24 112 42.5 239.5t31.5 280.5q-49 134 -113 283t-168 369l-153 33z" />
    <glyph glyph-name="Z" unicode="Z" horiz-adv-x="1028" 
d="M1049 1296v-47l-515 -678t-349 -507q81 2 220 6q424 11 459 84l37 77l39 11l-61 -203q-2 -5 -5 -15q-13 -42 -38 -42q-15 0 -77 3q-234 15 -435 15q-129 0 -206 -4.5t-138 -13.5v55q100 111 334 426l542 754q-383 0 -500.5 -20t-146.5 -75l-37 -78l-39 -8l62 203
q1 5 4 15q13 42 39 42q6 0 40 -3q196 -17 400 -17q116 0 208 5t163 15z" />
    <glyph glyph-name="bracketleft" unicode="[" horiz-adv-x="551" 
d="M301 1593h301l-6 -32h-162l-141 -971.5l-121 -872.5h162l-4 -32h-301q76 475 144 952t128 956z" />
    <glyph glyph-name="backslash" unicode="\" horiz-adv-x="551" 
d="M125 1618l203 -995l211 -953l-109 -18l-197.5 948.5l-218.5 998.5z" />
    <glyph glyph-name="bracketright" unicode="]" horiz-adv-x="551" 
d="M219 1593h301q-77 -474 -145 -950.5t-127 -957.5h-299l4 32h162l145 996l117 848h-162z" />
    <glyph glyph-name="asciicircum" unicode="^" horiz-adv-x="2048" 
d="M940 1462h166l526 -565h-88l-522 451l-524 -451h-86z" />
    <glyph glyph-name="underscore" unicode="_" 
d="M0 -383h1024v-100h-1024v100z" />
    <glyph glyph-name="grave" unicode="`" 
d="M463 1331l199 -282h-54l-225 223l-18 18q-43 41 -43 66q0 22 14.5 35.5t38.5 13.5q34 0 82 -66z" />
    <glyph glyph-name="a" unicode="a" horiz-adv-x="944" 
d="M666 813h-33q-23 0 -56 1t-40 1q-93 0 -147 -26t-95 -89q-50 -77 -87.5 -230.5t-37.5 -299.5q0 -30 9.5 -47t25.5 -17q28 0 85 49.5t124 133.5q98 123 160.5 253t91.5 271zM825 913q-59 -206 -93 -406.5t-34 -318.5q0 -38 5.5 -50.5t17.5 -12.5q10 0 25.5 12.5t48.5 48.5
l24 -20q-78 -87 -141.5 -135.5t-95.5 -48.5q-24 0 -33.5 17t-9.5 56q0 50 15.5 161.5t43.5 254.5q-139 -212 -289.5 -350.5t-226.5 -138.5q-31 0 -44 31.5t-13 105.5q0 354 182.5 574t464.5 220h104h49z" />
    <glyph glyph-name="b" unicode="b" horiz-adv-x="924" 
d="M187 108q40 -8 66 -12t44 -4q99 0 163 40t109 130q40 80 64 190.5t24 217.5q0 79 -10.5 108t-36.5 29q-32 0 -86 -47t-125 -137q-97 -125 -147.5 -247.5t-64.5 -267.5zM754 1455q-58 21 -96.5 30.5t-69.5 9.5q-200 0 -342 -919l-17 -109q138 204 282.5 332.5t223.5 128.5
q46 0 68 -44t22 -132q0 -138 -55 -280t-152 -249q-104 -114 -230.5 -173.5t-266.5 -59.5q-26 0 -55 3.5t-59 10.5q53 122 96 499t110 595q69 223 207 367.5t268 144.5q44 0 68 -20.5t24 -57.5q0 -14 -6.5 -33.5t-19.5 -43.5z" />
    <glyph glyph-name="c" unicode="c" horiz-adv-x="635" 
d="M502 745q-35 32 -64.5 46t-60.5 14q-93 0 -155 -147t-62 -367q0 -99 28 -146t86 -47q50 0 108 35.5t124 106.5l20 -25q-97 -110 -201.5 -174t-183.5 -64q-69 0 -102 48.5t-33 148.5q0 140 42 285t104 227q74 95 182 166.5t172 71.5q43 0 75.5 -21.5t32.5 -46.5
q0 -22 -31.5 -54t-80.5 -57z" />
    <glyph glyph-name="d" unicode="d" horiz-adv-x="944" 
d="M643 813h-29h-88q-87 0 -139.5 -26t-91.5 -87q-50 -77 -87.5 -230.5t-37.5 -299.5q0 -30 9.5 -47t25.5 -17q28 0 83.5 49t125.5 134q96 119 152.5 248t76.5 276zM1200 1450q-57 23 -92 32t-64 9q-67 0 -109 -58t-83 -219q-28 -110 -57 -278t-60 -395q-16 -123 -26.5 -225
t-10.5 -130q0 -37 5 -49t18 -12q10 0 25.5 12.5t48.5 48.5l24 -20q-78 -87 -141.5 -135.5t-95.5 -48.5q-24 0 -33.5 17t-9.5 56q0 50 15.5 161.5t43.5 254.5q-139 -212 -289.5 -350.5t-226.5 -138.5q-31 0 -44 31.5t-13 105.5q0 347 171 560.5t463 233.5q65 312 201.5 502.5
t284.5 190.5q39 0 59.5 -20t20.5 -58q0 -20 -6 -38.5t-19 -39.5z" />
    <glyph glyph-name="e" unicode="e" horiz-adv-x="659" 
d="M199 471q-12 -58 -17.5 -109t-5.5 -98q0 -79 28.5 -122.5t80.5 -43.5q46 0 104.5 37t122.5 107l20 -23q-94 -111 -200 -178.5t-182 -67.5q-65 0 -96 50.5t-31 152.5q0 129 39.5 272t99.5 234q58 90 172 165t184 75q53 0 81 -27.5t28 -79.5q0 -103 -123 -204t-305 -140z
M209 520q110 0 184 68t74 168q0 33 -17 52t-47 19q-66 0 -118.5 -82t-75.5 -225z" />
    <glyph glyph-name="f" unicode="f" horiz-adv-x="555" 
d="M793 1450q-50 22 -93 32.5t-82 10.5q-96 0 -151.5 -121.5t-112.5 -507.5q47 -4 84 -6t51 -2q65 0 93 6t49 21l10 -21q-42 -45 -106 -65.5t-162 -20.5h-33q-62 -524 -117.5 -752.5t-140.5 -377.5q-105 -183 -275 -283t-374 -100q-101 0 -157 31t-56 85q0 27 9.5 49
t31.5 46q62 -60 145.5 -91.5t177.5 -31.5q149 0 258 86t170 252q43 117 88 383t98 710q-64 -2 -106 -8.5t-74 -19.5l-8 16q57 53 102.5 74.5t98.5 21.5q48 324 198 534t314 210q46 0 70 -21t24 -61q0 -20 -6 -38.5t-18 -39.5z" />
    <glyph glyph-name="g" unicode="g" horiz-adv-x="920" 
d="M666 813h-33h-96q-94 0 -148 -25.5t-94 -87.5q-50 -77 -87.5 -230.5t-37.5 -299.5q0 -30 9.5 -47t25.5 -17q28 0 85 49.5t124 133.5q98 123 160.5 253t91.5 271zM825 915q-59 -163 -115 -578q-31 -229 -53 -351q-40 -224 -106 -350.5t-186 -227.5q-82 -70 -182.5 -108.5
t-198.5 -38.5q-72 0 -111 25t-39 71q0 19 8 38.5t22 38.5q53 -32 121 -49.5t142 -17.5q192 0 287 192.5t184 911.5q-139 -212 -289.5 -350.5t-226.5 -138.5q-31 0 -44 31.5t-13 105.5q0 360 184 577t483 217h45q18 0 40.5 0.5t47.5 1.5z" />
    <glyph glyph-name="h" unicode="h" horiz-adv-x="991" 
d="M759 1454q-57 22 -95.5 31.5t-69.5 9.5q-196 0 -335 -888q-19 -122 -30 -187q153 213 312.5 353t230.5 140q26 0 38.5 -16.5t12.5 -50.5q0 -69 -50 -305.5t-50 -372.5q0 -19 5 -27t17 -8q13 0 37 18.5t49 49.5l25 -19q-81 -94 -142.5 -144t-95.5 -50q-26 0 -38.5 19
t-12.5 59q0 116 49.5 355t49.5 329q0 22 -6.5 31.5t-22.5 9.5q-34 0 -123 -89.5t-180 -222.5q-70 -103 -108 -203.5t-52 -220.5q-33 -16 -85.5 -44.5l-68.5 -37.5q41 188 101.5 618t138.5 617q72 173 198 287.5t236 114.5q44 0 68 -20.5t24 -57.5q0 -14 -6.5 -33.5
t-20.5 -44.5z" />
    <glyph glyph-name="i" unicode="i" horiz-adv-x="508" 
d="M348 217l25 -16q-72 -103 -140 -164.5t-106 -61.5q-23 0 -35 17.5t-12 52.5q0 98 52 335.5t52 342.5q0 35 -4 42t-14 7q-13 0 -35.5 -17t-56.5 -53l-23 21q98 106 155.5 151.5t92.5 45.5q22 0 33.5 -16.5t11.5 -47.5q0 -73 -52 -308.5t-52 -361.5q0 -19 7 -30t19 -11
q14 0 35 19t47 53zM317 1290q32 0 54 -21t22 -52q0 -53 -30 -90t-72 -37q-34 0 -55 22.5t-21 58.5q0 48 30.5 83.5t71.5 35.5z" />
    <glyph glyph-name="j" unicode="j" horiz-adv-x="487" 
d="M-575 -563q54 -36 115 -54t128 -18q159 0 249.5 112.5t141.5 381.5q52 267 82.5 519.5t30.5 346.5q0 21 -6.5 31t-20.5 10t-37.5 -16t-64.5 -54l-25 21q100 109 161 158t97 49q27 0 38.5 -19.5t11.5 -64.5t-11 -148t-30 -243q-34 -244 -61 -392t-54 -243
q-67 -251 -243.5 -401t-401.5 -150q-66 0 -100.5 24.5t-34.5 71.5q0 19 8.5 38t26.5 40zM297 1290q32 0 53 -21t21 -52q0 -53 -30.5 -90t-72.5 -37q-33 0 -53 22t-20 59q0 48 30.5 83.5t71.5 35.5z" />
    <glyph glyph-name="k" unicode="k" horiz-adv-x="844" 
d="M762 1454q-58 23 -96.5 32t-71.5 9q-198 0 -338 -927l-10 -68q170 218 277 318t171 100q33 0 53.5 -20.5t20.5 -51.5q0 -30 -16.5 -60.5t-55.5 -72.5q-26 31 -47.5 43t-48.5 12q-37 0 -77 -25t-85 -75q49 -241 117 -395t119 -154q18 0 44 19.5t62 60.5l21 -21
q-71 -91 -127 -140.5t-88 -49.5q-61 0 -129 157t-119 420q-113 -117 -139 -447q-3 -40 -5 -61l-6 -3q-110 -61 -155 -81q33 173 90.5 608.5t136.5 624.5q73 173 200 288.5t236 115.5q44 0 67 -20t23 -58q0 -16 -6 -35.5t-18 -42.5z" />
    <glyph glyph-name="l" unicode="l" horiz-adv-x="487" 
d="M748 1450q-60 24 -94.5 32.5t-65.5 8.5q-75 0 -122.5 -80.5t-103.5 -323.5q-63 -278 -101 -533t-38 -357q0 -24 5.5 -34.5t19.5 -10.5q10 0 30 14.5t48 42.5l22 -21q-100 -112 -156 -158t-90 -46q-21 0 -32 18t-11 55q0 43 13.5 153t36.5 249q35 222 75.5 393.5
t85.5 296.5q79 211 192.5 334t227.5 123q40 0 61 -20t21 -58q0 -20 -6 -38.5t-18 -39.5z" />
    <glyph glyph-name="m" unicode="m" horiz-adv-x="1481" 
d="M553 -27q54 280 89.5 505.5t35.5 271.5q0 22 -6.5 31.5t-22.5 9.5q-19 0 -79.5 -64.5t-141.5 -171.5q-93 -124 -140.5 -241t-64.5 -259q-33 -16 -85.5 -44.5t-67.5 -37.5q50 256 80 460.5t30 281.5q0 28 -5.5 38.5t-18.5 10.5q-15 0 -40.5 -19.5t-58.5 -54.5l-22 21
q100 106 160.5 154t93.5 48q24 0 36.5 -17.5t12.5 -51.5q0 -48 -15.5 -163.5t-41.5 -262.5q143 221 285 358t216 137q26 0 39 -16.5t13 -50.5q0 -53 -64 -381l-10 -53q149 229 287 365t215 136q27 0 40 -16.5t13 -50.5q0 -69 -49 -305.5t-49 -372.5q0 -19 5 -27t17 -8
q13 0 37 18.5t49 49.5l23 -19q-81 -94 -142.5 -144t-95.5 -50q-26 0 -37.5 18.5t-11.5 59.5q0 116 49 355t49 329q0 22 -6.5 31.5t-22.5 9.5q-23 0 -101.5 -87.5t-164.5 -216.5q-68 -102 -105.5 -204t-51.5 -228q-38 -17 -111 -58z" />
    <glyph glyph-name="n" unicode="n" horiz-adv-x="1038" 
d="M70 -27q50 256 80 460.5t30 281.5q0 28 -5.5 38.5t-18.5 10.5q-15 0 -40.5 -19.5t-58.5 -54.5l-22 21q100 106 160.5 154t93.5 48q24 0 36.5 -17.5t12.5 -51.5q0 -48 -15.5 -163t-41.5 -261q152 213 311 353t229 140q26 0 38.5 -16.5t12.5 -50.5q0 -69 -49 -305.5
t-49 -372.5q0 -20 4.5 -27.5t16.5 -7.5q13 0 36.5 18.5t49.5 49.5l24 -19q-81 -94 -142.5 -144t-94.5 -50q-26 0 -38 18.5t-12 59.5q0 116 49.5 355t49.5 329q0 22 -6.5 31.5t-22.5 9.5q-35 0 -125.5 -90t-179.5 -222q-73 -107 -109.5 -205t-50.5 -219q-33 -16 -85.5 -44.5
t-67.5 -37.5z" />
    <glyph glyph-name="o" unicode="o" horiz-adv-x="809" 
d="M406 819q-114 0 -178 -136.5t-64 -377.5q0 -111 35 -164t108 -53q106 0 175 138t69 352q0 123 -35.5 182t-109.5 59zM516 920q90 0 136 -64t46 -188q0 -116 -33.5 -229t-93.5 -199q-76 -110 -186.5 -184t-191.5 -74q-87 0 -131 57.5t-44 171.5q0 160 44.5 296t123.5 220
q87 91 174.5 142t155.5 51z" />
    <glyph glyph-name="p" unicode="p" horiz-adv-x="985" 
d="M227 76q29 -8 54.5 -11.5t52.5 -3.5q178 0 283.5 165t105.5 440q0 63 -13 91.5t-42 28.5q-27 0 -77.5 -42t-113.5 -117q-98 -119 -158 -252t-92 -299zM283 424q133 213 281 351t229 138q46 0 72 -48.5t26 -135.5q0 -184 -86.5 -351.5t-241.5 -281.5q-78 -58 -162.5 -88.5
t-169.5 -30.5h-22q-39 -315 -229.5 -515.5t-440.5 -200.5q-70 0 -109.5 25t-39.5 69q0 19 7.5 38t22.5 40q58 -33 123.5 -49.5t137.5 -16.5q140 0 221.5 91t138.5 321q24 94 49.5 242t52.5 344q20 147 27.5 227t7.5 133q0 19 -6 29t-18 10q-15 0 -40 -20.5t-63 -65.5l-18 24
q82 100 151.5 155.5t110.5 55.5q23 0 34 -18t11 -55q0 -50 -14 -150t-43 -266z" />
    <glyph glyph-name="q" unicode="q" horiz-adv-x="920" 
d="M666 813h-31h-100q-101 0 -158.5 -31t-97.5 -104q-44 -79 -77.5 -224t-33.5 -274q0 -38 8.5 -56t26.5 -18q25 0 83.5 50.5t125.5 132.5q99 122 161 250.5t93 273.5zM825 915q-75 -274 -167 -938l-48 -332l-6 -44q-26 -194 -133 -240l285 -12l-11 -35h-55
q-126 0 -249.5 -13t-245.5 -38l14 37l98 22q59 15 78.5 33t32.5 59q27 92 67.5 333t108.5 720q-134 -207 -288.5 -346t-225.5 -139q-31 0 -45.5 30t-14.5 97q0 368 184 586t486 218q33 0 66 0.5t69 1.5z" />
    <glyph glyph-name="r" unicode="r" horiz-adv-x="696" 
d="M616 694q-13 28 -29 41t-36 13q-78 0 -183 -205.5t-151 -495.5l-48 -25q-70 -36 -101 -49q58 296 85 478.5t27 275.5q0 18 -7 28.5t-19 10.5q-14 0 -41.5 -20.5t-59.5 -55.5l-18 21q95 102 157 153t93 51q26 0 38.5 -23t12.5 -73q0 -41 -33 -274l-8 -60
q103 193 204 311.5t158 118.5q29 0 47.5 -21.5t18.5 -55.5q0 -31 -24.5 -64.5t-82.5 -79.5z" />
    <glyph glyph-name="s" unicode="s" horiz-adv-x="569" 
d="M440 764q-26 38 -55.5 57t-62.5 19q-48 0 -82.5 -38.5t-34.5 -92.5q0 -66 96 -188l11 -14q60 -77 80 -123.5t20 -94.5q0 -115 -103.5 -207t-228.5 -92q-68 0 -108 16t-40 43q0 21 23.5 47t60.5 45q32 -43 67 -63.5t77 -20.5q60 0 100.5 39.5t40.5 98.5q0 36 -19.5 78
t-62.5 96l-22 27q-105 132 -105 227q0 114 100.5 201t227.5 87q52 0 85.5 -17t33.5 -42q0 -24 -28 -49.5t-71 -38.5z" />
    <glyph glyph-name="t" unicode="t" horiz-adv-x="588" 
d="M422 1092l14 -15q-21 -41 -38 -94.5t-31 -120.5q49 -4 89.5 -6t67.5 -2q38 0 61 6.5t44 20.5l14 -17q-48 -45 -106.5 -65.5t-143.5 -20.5q-1 0 -6 1q-21 3 -39 3q-37 -177 -58.5 -331t-21.5 -234q0 -37 7 -53.5t22 -16.5q13 0 38 19t56 53l23 -18q-90 -106 -157 -161.5
t-105 -55.5q-20 0 -31.5 19t-11.5 52q0 77 23.5 245.5t78.5 481.5h-31q-51 0 -88 -6.5t-65 -19.5l-9 18q101 52 199.5 129t204.5 189z" />
    <glyph glyph-name="u" unicode="u" horiz-adv-x="1010" 
d="M864 928q-56 -242 -89.5 -452t-33.5 -296q0 -26 6 -36.5t21 -10.5t38 17.5t56 54.5l21 -21q-73 -88 -142 -143t-102 -55q-24 0 -37.5 18.5t-13.5 50.5q0 53 16 163t45 257q-153 -218 -301 -353.5t-223 -135.5q-26 0 -39.5 16.5t-13.5 48.5q0 81 51 321t51 365
q0 15 -4.5 22t-13.5 7q-12 0 -35 -16.5t-60 -51.5l-18 19q85 97 145 146.5t93 49.5q26 0 39.5 -19t13.5 -56q0 -50 -46 -296l-14 -74q-29 -159 -39 -223.5t-10 -92.5q0 -23 7.5 -34.5t21.5 -11.5q29 0 110.5 82.5t165.5 202.5q77 108 119.5 214.5t63.5 238.5l36 21
q75 46 115 63z" />
    <glyph glyph-name="v" unicode="v" horiz-adv-x="825" 
d="M10 690l-20 17q69 96 130 151t97 55q55 0 80 -72.5t25 -238.5q0 -110 -11 -233.5t-32 -253.5q171 167 271.5 335t100.5 279q0 25 -8 36t-27 11q-14 0 -31 -9.5t-42 -31.5l-19 21q64 75 119 116t90 41q33 0 49.5 -20t16.5 -59q0 -113 -100.5 -276t-303.5 -378
q-124 -132 -162.5 -164t-60.5 -32q-19 0 -27 4.5t-8 17.5q0 10 7 57q34 222 34 437q0 138 -16.5 200t-52.5 62q-18 0 -40 -16t-59 -56z" />
    <glyph glyph-name="w" unicode="w" horiz-adv-x="1346" 
d="M647 573q-125 -229 -308.5 -414.5t-234.5 -185.5q-6 0 -9.5 2t-4.5 7q0 8 15 60q83 303 83 560q0 90 -13.5 133t-41.5 43q-15 0 -36.5 -16t-69.5 -66l-21 19q72 96 133 148t101 52q45 0 68.5 -53t23.5 -157q0 -121 -16 -259.5t-48 -291.5q157 143 255 295t141 315
q26 28 52 61t52 72l29 -8q-9 -45 -13 -94.5t-4 -108.5q0 -239 33.5 -390t83.5 -151q20 0 46 24t58 73q69 102 110.5 228t41.5 228q0 42 -10.5 61t-32.5 19q-15 0 -36.5 -13t-49.5 -40l-18 20q66 84 118.5 127t87.5 43q36 0 54 -26t18 -78q0 -107 -57 -253.5t-158 -297.5
q-81 -119 -156.5 -192.5t-115.5 -73.5q-60 0 -97 144t-53 435z" />
    <glyph glyph-name="x" unicode="x" horiz-adv-x="768" 
d="M-109 122q17 -3 31 -5t27 -2q86 0 167.5 80t172.5 256q-4 14 -10 41q-63 258 -105 258q-17 0 -40 -22.5t-48 -63.5l-23 16q70 123 121 180.5t90 57.5q50 0 86 -210q19 -109 33 -178q126 228 191 308t116 80q36 0 59 -25t23 -64q0 -3 -1.5 -17l-2.5 -24q-6 1 -19.5 3
t-17.5 2q-85 0 -157.5 -65.5t-177.5 -244.5q58 -234 83 -290t56 -56q14 0 32 17.5t48 58.5l22 -16q-59 -98 -111.5 -151.5t-86.5 -53.5q-61 0 -134 354l-12 55q-126 -252 -191.5 -330.5t-131.5 -78.5q-40 0 -67.5 25.5t-27.5 60.5q0 10 1.5 21t4.5 23z" />
    <glyph glyph-name="y" unicode="y" horiz-adv-x="967" 
d="M864 928q-60 -235 -104 -559t-54 -376q-40 -226 -106.5 -354.5t-187.5 -230.5q-82 -70 -182.5 -108.5t-198.5 -38.5q-72 0 -111 25t-39 71q0 17 8 37t23 41q59 -35 123 -51.5t141 -16.5q190 0 283.5 188.5t183.5 915.5q-141 -211 -291.5 -348t-226.5 -137
q-26 0 -39.5 16.5t-13.5 48.5q0 81 51 321t51 365q0 15 -4.5 22t-13.5 7q-12 0 -35 -16.5t-60 -51.5l-18 19q85 97 145 146.5t93 49.5q26 0 39.5 -19t13.5 -56q0 -50 -46 -296l-14 -74q-29 -159 -39 -223.5t-10 -92.5q0 -23 7.5 -34.5t21.5 -11.5q29 0 110.5 82.5
t165.5 202.5q77 108 119.5 214.5t63.5 238.5l36 21q75 46 115 63z" />
    <glyph glyph-name="z" unicode="z" horiz-adv-x="735" 
d="M690 903l25 -14l-318 -386.5t-327 -359.5q28 11 55 16t55 5q45 0 133.5 -20.5t130.5 -20.5q60 0 100.5 29.5t84.5 107.5l30 -12q-75 -162 -125.5 -211t-125.5 -49q-55 0 -163.5 29.5t-158.5 29.5q-42 0 -81 -14.5t-77 -44.5l-16 16q157 210 320.5 401.5t334.5 366.5
q-33 -11 -60.5 -15.5t-51.5 -4.5q-43 0 -118.5 16t-109.5 16q-48 0 -87.5 -30.5t-86.5 -106.5l-26 12q66 140 122.5 197t124.5 57q48 0 150 -23.5t151 -23.5q31 0 60 9.5t55 27.5z" />
    <glyph glyph-name="braceleft" unicode="{" 
d="M846 1516v-49q-147 -2 -200.5 -55t-53.5 -210v-145q0 -225 -63 -308t-234 -114q171 -32 234 -114.5t63 -307.5v-145q0 -156 53 -208.5t201 -54.5v-49h-10q-215 0 -295 73t-80 273v217q0 156 -60 216t-225 73v56q168 15 226.5 73.5t58.5 214.5v217q0 200 80 273.5
t295 73.5h10z" />
    <glyph glyph-name="bar" unicode="|" 
d="M459 1565h108v-2048h-108v2048z" />
    <glyph glyph-name="braceright" unicode="}" 
d="M178 1516h10q216 0 296.5 -74t80.5 -273v-217q0 -157 58 -215t225 -73v-56q-165 -13 -224 -72.5t-59 -216.5v-217q0 -199 -80.5 -272.5t-296.5 -73.5h-10v49q149 2 202.5 55t53.5 208v145q0 226 62.5 308.5t232.5 113.5q-170 31 -232.5 113.5t-62.5 308.5v145
q0 155 -53.5 208.5t-202.5 56.5v49z" />
    <glyph glyph-name="asciitilde" unicode="~" horiz-adv-x="1706" 
d="M1530 750v-113q-102 -72 -198 -107.5t-189 -35.5q-99 0 -260 57l-29 10l-16 6q-176 64 -273 64q-83 0 -175 -38t-212 -122v113q106 73 202 109t185 36q104 0 272 -61q11 -4 18 -7q9 -3 31 -11q167 -60 257 -60q85 0 177 38t210 122z" />
    <glyph glyph-name="Adieresis" unicode="&#xc4;" horiz-adv-x="1276" 
d="M686 1153l-174.5 -323l-146.5 -289h448q-32 177 -63.5 327t-63.5 285zM813 1337q22 -223 88.5 -558.5t167.5 -721.5l162 -32l-12 -35q-80 6 -191 9q-33 0 -47 1q-61 0 -127.5 -2.5t-136.5 -7.5l14 35l155 32q-3 69 -16.5 163.5t-46.5 273.5h-481q-97 -200 -133.5 -288
t-50.5 -149l166 -32l-15 -35q-66 5 -139 7.5t-74 2.5q-62 0 -124 -2.5t-123 -7.5l14 35l145 32q288 466 482 826t194 411v4zM938 1673q35 0 61.5 -27t26.5 -61q0 -38 -25.5 -63t-62.5 -25q-36 0 -61 25.5t-25 60.5t26 62.5t60 27.5zM596 1673q34 0 61 -27t27 -61
q0 -38 -25 -63t-63 -25q-36 0 -61 26t-25 62q0 33 27 60.5t59 27.5z" />
    <glyph glyph-name="Aring" unicode="&#xc5;" horiz-adv-x="1276" 
d="M686 1153l-174.5 -323l-146.5 -289h448q-32 177 -63.5 327t-63.5 285zM813 1337q22 -223 88.5 -558.5t167.5 -721.5l162 -32l-13 -35q-55 5 -109 7.5t-128 2.5q-88 0 -147 -2.5t-117 -7.5l14 35l155 32q-3 69 -16.5 163.5t-46.5 273.5h-481q-97 -200 -133.5 -288
t-50.5 -149l166 -32l-15 -35q-53 5 -103 7.5t-110 2.5q-88 0 -142.5 -2.5t-104.5 -7.5l14 35l145 32q288 466 482 826t194 411v4zM766 1839q-66 0 -113 -46t-47 -112t46.5 -111.5t113.5 -45.5q66 0 111 45.5t45 111.5q0 67 -45 112.5t-111 45.5zM766 1915q97 0 165 -68.5
t68 -165.5q0 -96 -68 -164.5t-165 -68.5q-98 0 -166 67.5t-68 165.5q0 99 68 166.5t166 67.5z" />
    <glyph glyph-name="Ccedilla" unicode="&#xc7;" horiz-adv-x="1085" 
d="M975 1030l-6 2q-10 93 -75.5 144t-174.5 51q-218 0 -346.5 -194t-128.5 -527q0 -202 98.5 -319t269.5 -117q84 0 167.5 25.5t174.5 80.5l-6 -59q-107 -70 -225 -106t-242 -36q-194 0 -299.5 121t-105.5 344q0 177 59 338t168 281q108 118 244 182t280 64q119 0 195 -37
t76 -92q0 -43 -103 -129zM480 0h55l-37 -121q9 1 23 2q30 2 40 2q77 0 122.5 -43.5t45.5 -115.5q0 -73 -58 -118.5t-153 -45.5q-68 0 -139 21.5t-129 60.5l23 53q61 -33 121 -51.5t100 -18.5q63 0 95 25t32 76q0 43 -31 67.5t-86 24.5q-20 0 -41.5 -2t-44.5 -6z" />
    <glyph glyph-name="Eacute" unicode="&#xc9;" horiz-adv-x="1143" 
d="M172 1288q105 -8 200 -12t185 -4q194 0 399 13q45 3 56 3q22 0 30.5 -5t8.5 -19q0 -12 -2.5 -25.5t-6.5 -26.5l-38 -153l-37 -6l6 53q1 11 2.5 23l1.5 12q0 32 -83 47t-370 26q-25 -117 -48.5 -246.5t-43.5 -267.5h78h59q82 0 137.5 2t108.5 7l39 96l43 20
q-26 -91 -44 -172.5t-28 -160.5l-39 -25l9 151q-88 9 -181.5 13t-191.5 4q-23 -154 -37 -297t-18 -274q13 -1 44 -2t48 -1q117 0 227 9.5t178 23.5q45 9 61.5 18t32.5 42l37 75l39 11l-61 -201q-12 -38 -19 -44.5t-26 -6.5q-8 0 -49 2q-223 10 -449 10q-174 0 -266.5 -3
t-175.5 -9l14 35l176 34q67 330 107.5 622.5t54.5 543.5l-182 32zM866 1657l-273 -223h-55l262 301q30 34 46 44.5t32 10.5q21 0 35 -14.5t14 -36.5q0 -30 -60 -81z" />
    <glyph glyph-name="Ntilde" unicode="&#xd1;" horiz-adv-x="1464" 
d="M166 1290q67 -8 108.5 -11t73.5 -3q37 0 71 3.5t70 10.5q159 -353 313 -647t269 -465q39 276 58.5 529.5t19.5 470.5v45l-182 32l17 35q72 -7 135 -10.5t110 -3.5q39 0 94.5 3t161.5 11l-15 -35l-176 -32q-74 -335 -115 -636t-47 -548l-118 -66l-314 601.5l-303 533.5
q-41 -258 -61.5 -521.5t-20.5 -529.5l183 -32l-15 -35q-56 5 -112.5 7.5t-132.5 2.5q-84 0 -141 -2.5t-115 -7.5l14 35l176 32q63 293 104 585.5t58 580.5l-184 32zM1088 1702h41q-24 -92 -65 -136t-103 -44q-16 0 -31.5 2t-30.5 6l-133 33h-2q-52 14 -72 14
q-38 0 -62.5 -20t-35.5 -60h-39q19 90 58.5 132t105.5 42q14 0 34 -3t44 -9l137 -35q4 -1 11 -2q29 -6 40 -6q40 0 65 21t38 65z" />
    <glyph glyph-name="Odieresis" unicode="&#xd6;" horiz-adv-x="1274" 
d="M694 1227q-205 0 -327.5 -200.5t-122.5 -541.5q0 -212 81.5 -320t241.5 -108q203 0 326 192.5t123 508.5q0 238 -79.5 353.5t-242.5 115.5zM788 1305q197 0 298.5 -117.5t101.5 -345.5q0 -178 -58.5 -339t-166.5 -282q-107 -119 -236.5 -182.5t-265.5 -63.5
q-187 0 -286 120.5t-99 346.5q0 161 47.5 307.5t136.5 262.5q102 133 247 213t281 80zM1014 1673q35 0 61.5 -27t26.5 -61q0 -38 -25.5 -63t-62.5 -25q-36 0 -61 25.5t-25 60.5t26 62.5t60 27.5zM672 1673q34 0 61 -27t27 -61q0 -38 -25 -63t-63 -25q-36 0 -61 26t-25 62
q0 33 27 60.5t59 27.5z" />
    <glyph glyph-name="Udieresis" unicode="&#xdc;" horiz-adv-x="1384" 
d="M121 1255l16 35q78 -7 146 -10.5t127 -3.5q38 0 91 2.5t179 11.5l-14 -35l-170 -32q-65 -257 -100.5 -489.5t-35.5 -385.5q0 -156 71.5 -229.5t223.5 -73.5q126 0 213.5 47.5t135.5 143.5q38 78 64 292.5t26 485.5q0 83 -2 126.5t-7 82.5l-190 32l17 35
q76 -7 140.5 -10.5t112.5 -3.5q40 0 96 3t162 11l-14 -35l-170 -32q-47 -206 -86 -490.5t-55 -355.5q-50 -217 -162 -309.5t-320 -92.5q-202 0 -301.5 87t-99.5 264q0 75 43 369.5t43 512.5v15zM1010 1673q35 0 61.5 -27t26.5 -61q0 -38 -25.5 -63t-62.5 -25q-36 0 -61 25.5
t-25 60.5t26 62.5t60 27.5zM668 1673q34 0 61 -27t27 -61q0 -38 -25 -63t-63 -25q-36 0 -61 26t-25 62q0 33 27 60.5t59 27.5z" />
    <glyph glyph-name="aacute" unicode="&#xe1;" horiz-adv-x="944" 
d="M666 813h-33q-23 0 -56 1t-40 1q-93 0 -147 -26t-95 -89q-50 -77 -87.5 -230.5t-37.5 -299.5q0 -30 9.5 -47t25.5 -17q28 0 85 49.5t124 133.5q98 123 160.5 253t91.5 271zM825 913q-59 -206 -93 -406.5t-34 -318.5q0 -38 5.5 -50.5t17.5 -12.5q10 0 25.5 12.5t48.5 48.5
l24 -20q-78 -87 -141.5 -135.5t-95.5 -48.5q-24 0 -33.5 17t-9.5 56q0 50 15.5 161.5t43.5 254.5q-139 -212 -289.5 -350.5t-226.5 -138.5q-31 0 -44 31.5t-13 105.5q0 354 182.5 574t464.5 220h104h49zM825 1272l-273 -223h-55l262 301q30 34 46 44.5t32 10.5
q21 0 35 -14.5t14 -36.5q0 -30 -60 -81z" />
    <glyph glyph-name="agrave" unicode="&#xe0;" horiz-adv-x="944" 
d="M666 813h-33q-23 0 -56 1t-40 1q-93 0 -147 -26t-95 -89q-50 -77 -87.5 -230.5t-37.5 -299.5q0 -30 9.5 -47t25.5 -17q28 0 85 49.5t124 133.5q98 123 160.5 253t91.5 271zM825 913q-59 -206 -93 -406.5t-34 -318.5q0 -38 5.5 -50.5t17.5 -12.5q10 0 25.5 12.5t48.5 48.5
l24 -20q-78 -87 -141.5 -135.5t-95.5 -48.5q-24 0 -33.5 17t-9.5 56q0 50 15.5 161.5t43.5 254.5q-139 -212 -289.5 -350.5t-226.5 -138.5q-31 0 -44 31.5t-13 105.5q0 354 182.5 574t464.5 220h104h49zM569 1331l199 -282h-54l-225 223l-18 18q-43 41 -43 66
q0 22 14.5 35.5t38.5 13.5q34 0 82 -66z" />
    <glyph glyph-name="acircumflex" unicode="&#xe2;" horiz-adv-x="944" 
d="M666 813h-33q-23 0 -56 1t-40 1q-93 0 -147 -26t-95 -89q-50 -77 -87.5 -230.5t-37.5 -299.5q0 -30 9.5 -47t25.5 -17q28 0 85 49.5t124 133.5q98 123 160.5 253t91.5 271zM825 913q-59 -206 -93 -406.5t-34 -318.5q0 -38 5.5 -50.5t17.5 -12.5q10 0 25.5 12.5t48.5 48.5
l24 -20q-78 -87 -141.5 -135.5t-95.5 -48.5q-24 0 -33.5 17t-9.5 56q0 50 15.5 161.5t43.5 254.5q-139 -212 -289.5 -350.5t-226.5 -138.5q-31 0 -44 31.5t-13 105.5q0 354 182.5 574t464.5 220h104h49zM630 1399h107l155 -350h-45l-174 243l-270 -243h-53z" />
    <glyph glyph-name="adieresis" unicode="&#xe4;" horiz-adv-x="944" 
d="M666 813h-33q-23 0 -56 1t-40 1q-93 0 -147 -26t-95 -89q-50 -77 -87.5 -230.5t-37.5 -299.5q0 -30 9.5 -47t25.5 -17q28 0 85 49.5t124 133.5q98 123 160.5 253t91.5 271zM825 913q-59 -206 -93 -406.5t-34 -318.5q0 -38 5.5 -50.5t17.5 -12.5q10 0 25.5 12.5t48.5 48.5
l24 -20q-78 -87 -141.5 -135.5t-95.5 -48.5q-24 0 -33.5 17t-9.5 56q0 50 15.5 161.5t43.5 254.5q-139 -212 -289.5 -350.5t-226.5 -138.5q-31 0 -44 31.5t-13 105.5q0 354 182.5 574t464.5 220h104h49zM821 1288q35 0 61.5 -27t26.5 -61q0 -38 -25.5 -63t-62.5 -25
q-36 0 -61 25.5t-25 60.5t26 62.5t60 27.5zM479 1288q34 0 61 -27t27 -61q0 -38 -25 -63t-63 -25q-36 0 -61 26t-25 62q0 33 27 60.5t59 27.5z" />
    <glyph glyph-name="atilde" unicode="&#xe3;" horiz-adv-x="944" 
d="M666 813h-33q-23 0 -56 1t-40 1q-93 0 -147 -26t-95 -89q-50 -77 -87.5 -230.5t-37.5 -299.5q0 -30 9.5 -47t25.5 -17q28 0 85 49.5t124 133.5q98 123 160.5 253t91.5 271zM825 913q-59 -206 -93 -406.5t-34 -318.5q0 -38 5.5 -50.5t17.5 -12.5q10 0 25.5 12.5t48.5 48.5
l24 -20q-78 -87 -141.5 -135.5t-95.5 -48.5q-24 0 -33.5 17t-9.5 56q0 50 15.5 161.5t43.5 254.5q-139 -212 -289.5 -350.5t-226.5 -138.5q-31 0 -44 31.5t-13 105.5q0 354 182.5 574t464.5 220h104h49zM901 1317h41q-24 -92 -65 -136t-103 -44q-16 0 -31.5 2t-30.5 6
l-133 33h-2q-52 14 -72 14q-38 0 -62.5 -20t-35.5 -60h-39q19 90 58.5 132t105.5 42q14 0 34 -3t44 -9l137 -35q4 -1 11 -2q29 -6 40 -6q40 0 65 21t38 65z" />
    <glyph glyph-name="aring" unicode="&#xe5;" horiz-adv-x="944" 
d="M666 813h-33h-96q-94 0 -148 -25.5t-94 -87.5q-50 -77 -87.5 -230.5t-37.5 -299.5q0 -30 9.5 -47t25.5 -17q28 0 85 49.5t124 133.5q98 123 160.5 253t91.5 271zM825 913q-59 -206 -93 -406.5t-34 -318.5q0 -38 5.5 -50.5t17.5 -12.5q10 0 25.5 12.5t48.5 48.5l24 -20
q-78 -87 -141.5 -135.5t-95.5 -48.5q-24 0 -33.5 17t-9.5 56q0 50 15.5 161.5t43.5 254.5q-139 -212 -289.5 -350.5t-226.5 -138.5q-31 0 -44 31.5t-13 105.5q0 354 182.5 574t464.5 220h104h49zM635 1417q-67 0 -113.5 -46t-46.5 -111q0 -67 46.5 -112.5t113.5 -45.5
q66 0 112 45.5t46 112.5q0 66 -46 111.5t-112 45.5zM635 1493q97 0 165 -68.5t68 -164.5q0 -97 -68 -165.5t-165 -68.5q-98 0 -166 67.5t-68 166.5q0 98 68 165.5t166 67.5z" />
    <glyph glyph-name="ccedilla" unicode="&#xe7;" horiz-adv-x="635" 
d="M502 745q-35 32 -64.5 46t-60.5 14q-93 0 -155 -147t-62 -367q0 -99 28 -146t86 -47q50 0 108 35.5t124 106.5l20 -25q-97 -110 -201.5 -174t-183.5 -64q-69 0 -102 48.5t-33 148.5q0 140 42 285t104 227q74 95 182 166.5t172 71.5q43 0 75.5 -21.5t32.5 -46.5
q0 -22 -31.5 -54t-80.5 -57zM205 0h55l-37 -121q9 1 23 2q30 2 40 2q77 0 122.5 -43.5t45.5 -115.5q0 -73 -58 -118.5t-153 -45.5q-68 0 -139 21.5t-129 60.5l23 53q61 -33 121 -51.5t100 -18.5q63 0 95 25t32 76q0 43 -31 67.5t-86 24.5q-20 0 -41.5 -2t-44.5 -6z" />
    <glyph glyph-name="eacute" unicode="&#xe9;" horiz-adv-x="659" 
d="M199 471q-12 -58 -17.5 -109t-5.5 -98q0 -79 28.5 -122.5t80.5 -43.5q46 0 104.5 37t122.5 107l20 -23q-94 -111 -200 -178.5t-182 -67.5q-65 0 -96 50.5t-31 152.5q0 129 39.5 272t99.5 234q58 90 172 165t184 75q53 0 81 -27.5t28 -79.5q0 -103 -123 -204t-305 -140z
M209 520q110 0 184 68t74 168q0 33 -17 52t-47 19q-66 0 -118.5 -82t-75.5 -225zM678 1272l-273 -223h-55l262 301q30 34 46 44.5t32 10.5q21 0 35 -14.5t14 -36.5q0 -30 -60 -81z" />
    <glyph glyph-name="egrave" unicode="&#xe8;" horiz-adv-x="659" 
d="M199 471q-12 -58 -17.5 -109t-5.5 -98q0 -79 28.5 -122.5t80.5 -43.5q46 0 104.5 37t122.5 107l20 -23q-94 -111 -200 -178.5t-182 -67.5q-65 0 -96 50.5t-31 152.5q0 129 39.5 272t99.5 234q58 90 172 165t184 75q53 0 81 -27.5t28 -79.5q0 -103 -123 -204t-305 -140z
M209 520q110 0 184 68t74 168q0 33 -17 52t-47 19q-66 0 -118.5 -82t-75.5 -225zM422 1331l199 -282h-54l-225 223l-18 18q-43 41 -43 66q0 22 14.5 35.5t38.5 13.5q34 0 82 -66z" />
    <glyph glyph-name="ecircumflex" unicode="&#xea;" horiz-adv-x="659" 
d="M199 471q-12 -58 -17.5 -109t-5.5 -98q0 -79 28.5 -122.5t80.5 -43.5q46 0 104.5 37t122.5 107l20 -23q-94 -111 -200 -178.5t-182 -67.5q-65 0 -96 50.5t-31 152.5q0 129 39.5 272t99.5 234q58 90 172 165t184 75q53 0 81 -27.5t28 -79.5q0 -103 -123 -204t-305 -140z
M209 520q110 0 184 68t74 168q0 33 -17 52t-47 19q-66 0 -118.5 -82t-75.5 -225zM483 1399h107l155 -350h-45l-174 243l-270 -243h-53z" />
    <glyph glyph-name="edieresis" unicode="&#xeb;" horiz-adv-x="659" 
d="M199 471q-12 -58 -17.5 -109t-5.5 -98q0 -79 28.5 -122.5t80.5 -43.5q46 0 104.5 37t122.5 107l20 -23q-94 -111 -200 -178.5t-182 -67.5q-65 0 -96 50.5t-31 152.5q0 129 39.5 272t99.5 234q58 90 172 165t184 75q53 0 81 -27.5t28 -79.5q0 -103 -123 -204t-305 -140z
M209 520q110 0 184 68t74 168q0 33 -17 52t-47 19q-66 0 -118.5 -82t-75.5 -225zM674 1288q35 0 61.5 -27t26.5 -61q0 -38 -25.5 -63t-62.5 -25q-36 0 -61 25.5t-25 60.5t26 62.5t60 27.5zM332 1288q34 0 61 -27t27 -61q0 -38 -25 -63t-63 -25q-36 0 -61 26t-25 62
q0 33 27 60.5t59 27.5z" />
    <glyph glyph-name="iacute" unicode="&#xed;" horiz-adv-x="508" 
d="M348 217l25 -16q-72 -102 -140.5 -164t-107.5 -62q-23 0 -34 17.5t-11 52.5q0 34 11.5 111t33.5 194q31 165 45 254.5t14 120.5q0 28 -4.5 37.5t-15.5 9.5q-13 0 -35.5 -17t-56.5 -53l-23 21q93 101 154 149t96 48q22 0 33.5 -16.5t11.5 -47.5q0 -74 -52 -309t-52 -361
q0 -19 7 -30t19 -11q14 0 35 19t47 53zM488 1272l-273 -223h-55l262 301q30 34 46 44.5t32 10.5q21 0 35 -14.5t14 -36.5q0 -30 -60 -81z" />
    <glyph glyph-name="igrave" unicode="&#xec;" horiz-adv-x="508" 
d="M348 217l25 -16q-72 -102 -140.5 -164t-107.5 -62q-23 0 -34 17.5t-11 52.5q0 34 11.5 111t33.5 194q31 165 45 254.5t14 120.5q0 28 -4.5 37.5t-15.5 9.5q-13 0 -35.5 -17t-56.5 -53l-23 21q93 101 154 149t96 48q22 0 33.5 -16.5t11.5 -47.5q0 -74 -52 -309t-52 -361
q0 -19 7 -30t19 -11q14 0 35 19t47 53zM232 1331l199 -282h-54l-225 223l-18 18q-43 41 -43 66q0 22 14.5 35.5t38.5 13.5q34 0 82 -66z" />
    <glyph glyph-name="icircumflex" unicode="&#xee;" horiz-adv-x="508" 
d="M348 217l25 -16q-72 -102 -140.5 -164t-107.5 -62q-23 0 -34 17.5t-11 52.5q0 34 11.5 111t33.5 194q31 165 45 254.5t14 120.5q0 28 -4.5 37.5t-15.5 9.5q-13 0 -35.5 -17t-56.5 -53l-23 21q93 101 154 149t96 48q22 0 33.5 -16.5t11.5 -47.5q0 -74 -52 -309t-52 -361
q0 -19 7 -30t19 -11q14 0 35 19t47 53zM293 1399h107l155 -350h-45l-174 243l-270 -243h-53z" />
    <glyph glyph-name="idieresis" unicode="&#xef;" horiz-adv-x="508" 
d="M348 217l25 -16q-72 -102 -140.5 -164t-107.5 -62q-23 0 -34 17.5t-11 52.5q0 34 11.5 111t33.5 194q31 165 45 254.5t14 120.5q0 28 -4.5 37.5t-15.5 9.5q-13 0 -35.5 -17t-56.5 -53l-23 21q93 101 154 149t96 48q22 0 33.5 -16.5t11.5 -47.5q0 -74 -52 -309t-52 -361
q0 -19 7 -30t19 -11q14 0 35 19t47 53zM484 1288q35 0 61.5 -27t26.5 -61q0 -38 -25.5 -63t-62.5 -25q-36 0 -61 25.5t-25 60.5t26 62.5t60 27.5zM142 1288q34 0 61 -27t27 -61q0 -38 -25 -63t-63 -25q-36 0 -61 26t-25 62q0 33 27 60.5t59 27.5z" />
    <glyph glyph-name="ntilde" unicode="&#xf1;" horiz-adv-x="1038" 
d="M70 -27q50 256 80 460.5t30 281.5q0 28 -5.5 38.5t-18.5 10.5q-15 0 -40.5 -19.5t-58.5 -54.5l-22 21q100 106 160.5 154t93.5 48q24 0 36.5 -17.5t12.5 -51.5q0 -48 -15.5 -163t-41.5 -261q152 213 311 353t229 140q26 0 38.5 -16.5t12.5 -50.5q0 -69 -49 -305.5
t-49 -372.5q0 -20 4.5 -27.5t16.5 -7.5q13 0 36.5 18.5t49.5 49.5l24 -19q-81 -94 -142.5 -144t-94.5 -50q-26 0 -38 18.5t-12 59.5q0 116 49.5 355t49.5 329q0 22 -6.5 31.5t-22.5 9.5q-35 0 -125.5 -90t-179.5 -222q-73 -107 -109.5 -205t-50.5 -219q-33 -16 -85.5 -44.5
t-67.5 -37.5zM822 1317h41q-24 -92 -65 -136t-103 -44q-16 0 -31.5 2t-30.5 6l-133 33h-2q-52 14 -72 14q-38 0 -62.5 -20t-35.5 -60h-39q19 90 58.5 132t105.5 42q14 0 34 -3t44 -9l137 -35q4 -1 11 -2q29 -6 40 -6q40 0 65 21t38 65z" />
    <glyph glyph-name="oacute" unicode="&#xf3;" horiz-adv-x="809" 
d="M406 819q-114 0 -178 -136.5t-64 -377.5q0 -111 35 -164t108 -53q106 0 175 138t69 352q0 123 -35.5 182t-109.5 59zM516 920q90 0 136 -64t46 -188q0 -116 -33.5 -229t-93.5 -199q-76 -110 -186.5 -184t-191.5 -74q-87 0 -131 57.5t-44 171.5q0 160 44.5 296t123.5 220
q87 91 174.5 142t155.5 51zM711 1272l-273 -223h-55l262 301q30 34 46 44.5t32 10.5q21 0 35 -14.5t14 -36.5q0 -30 -60 -81z" />
    <glyph glyph-name="ograve" unicode="&#xf2;" horiz-adv-x="809" 
d="M406 819q-114 0 -178 -136.5t-64 -377.5q0 -111 35 -164t108 -53q106 0 175 138t69 352q0 123 -35.5 182t-109.5 59zM516 920q90 0 136 -64t46 -188q0 -116 -33.5 -229t-93.5 -199q-76 -110 -186.5 -184t-191.5 -74q-87 0 -131 57.5t-44 171.5q0 160 44.5 296t123.5 220
q87 91 174.5 142t155.5 51zM455 1331l199 -282h-54l-225 223l-18 18q-43 41 -43 66q0 22 14.5 35.5t38.5 13.5q34 0 82 -66z" />
    <glyph glyph-name="ocircumflex" unicode="&#xf4;" horiz-adv-x="809" 
d="M406 819q-114 0 -178 -136.5t-64 -377.5q0 -111 35 -164t108 -53q106 0 175 138t69 352q0 123 -35.5 182t-109.5 59zM516 920q90 0 136 -64t46 -188q0 -116 -33.5 -229t-93.5 -199q-76 -110 -186.5 -184t-191.5 -74q-87 0 -131 57.5t-44 171.5q0 160 44.5 296t123.5 220
q87 91 174.5 142t155.5 51zM516 1399h107l155 -350h-45l-174 243l-270 -243h-53z" />
    <glyph glyph-name="odieresis" unicode="&#xf6;" horiz-adv-x="809" 
d="M406 819q-114 0 -178 -136.5t-64 -377.5q0 -111 35 -164t108 -53q106 0 175 138t69 352q0 123 -35.5 182t-109.5 59zM516 920q90 0 136 -64t46 -188q0 -116 -33.5 -229t-93.5 -199q-76 -110 -186.5 -184t-191.5 -74q-87 0 -131 57.5t-44 171.5q0 160 44.5 296t123.5 220
q87 91 174.5 142t155.5 51zM707 1288q35 0 61.5 -27t26.5 -61q0 -38 -25.5 -63t-62.5 -25q-36 0 -61 25.5t-25 60.5t26 62.5t60 27.5zM365 1288q34 0 61 -27t27 -61q0 -38 -25 -63t-63 -25q-36 0 -61 26t-25 62q0 33 27 60.5t59 27.5z" />
    <glyph glyph-name="otilde" unicode="&#xf5;" horiz-adv-x="809" 
d="M406 819q-114 0 -178 -136.5t-64 -377.5q0 -111 35 -164t108 -53q106 0 175 138t69 352q0 123 -35.5 182t-109.5 59zM516 920q90 0 136 -64t46 -188q0 -116 -33.5 -229t-93.5 -199q-76 -110 -186.5 -184t-191.5 -74q-87 0 -131 57.5t-44 171.5q0 160 44.5 296t123.5 220
q87 91 174.5 142t155.5 51zM787 1317h41q-24 -92 -65 -136t-103 -44q-16 0 -31.5 2t-30.5 6l-133 33h-2q-52 14 -72 14q-38 0 -62.5 -20t-35.5 -60h-39q19 90 58.5 132t105.5 42q14 0 34 -3t44 -9l137 -35q4 -1 11 -2q29 -6 40 -6q40 0 65 21t38 65z" />
    <glyph glyph-name="uacute" unicode="&#xfa;" horiz-adv-x="1010" 
d="M864 928q-56 -242 -89.5 -452t-33.5 -296q0 -26 6 -36.5t21 -10.5t38 17.5t56 54.5l21 -21q-73 -88 -142 -143t-102 -55q-24 0 -37.5 18.5t-13.5 50.5q0 53 16 163t45 257q-153 -218 -301 -353.5t-223 -135.5q-26 0 -39.5 16.5t-13.5 48.5q0 81 51 321t51 365
q0 15 -4.5 22t-13.5 7q-12 0 -35 -16.5t-60 -51.5l-18 19q85 97 145 146.5t93 49.5q26 0 39.5 -19t13.5 -56q0 -50 -46 -296l-14 -74q-29 -159 -39 -223.5t-10 -92.5q0 -23 7.5 -34.5t21.5 -11.5q29 0 110.5 82.5t165.5 202.5q77 108 119.5 214.5t63.5 238.5l36 21
q75 46 115 63zM737 1272l-273 -223h-55l262 301q30 34 46 44.5t32 10.5q21 0 35 -14.5t14 -36.5q0 -30 -60 -81z" />
    <glyph glyph-name="ugrave" unicode="&#xf9;" horiz-adv-x="1010" 
d="M864 928q-56 -242 -89.5 -452t-33.5 -296q0 -26 6 -36.5t21 -10.5t38 17.5t56 54.5l21 -21q-73 -88 -142 -143t-102 -55q-24 0 -37.5 18.5t-13.5 50.5q0 53 16 163t45 257q-153 -218 -301 -353.5t-223 -135.5q-26 0 -39.5 16.5t-13.5 48.5q0 81 51 321t51 365
q0 15 -4.5 22t-13.5 7q-12 0 -35 -16.5t-60 -51.5l-18 19q85 97 145 146.5t93 49.5q26 0 39.5 -19t13.5 -56q0 -50 -46 -296l-14 -74q-29 -159 -39 -223.5t-10 -92.5q0 -23 7.5 -34.5t21.5 -11.5q29 0 110.5 82.5t165.5 202.5q77 108 119.5 214.5t63.5 238.5l36 21
q75 46 115 63zM481 1331l199 -282h-54l-225 223l-18 18q-43 41 -43 66q0 22 14.5 35.5t38.5 13.5q34 0 82 -66z" />
    <glyph glyph-name="ucircumflex" unicode="&#xfb;" horiz-adv-x="1010" 
d="M864 928q-56 -242 -89.5 -452t-33.5 -296q0 -26 6 -36.5t21 -10.5t38 17.5t56 54.5l21 -21q-73 -88 -142 -143t-102 -55q-24 0 -37.5 18.5t-13.5 50.5q0 53 16 163t45 257q-153 -218 -301 -353.5t-223 -135.5q-26 0 -39.5 16.5t-13.5 48.5q0 81 51 321t51 365
q0 15 -4.5 22t-13.5 7q-12 0 -35 -16.5t-60 -51.5l-18 19q85 97 145 146.5t93 49.5q26 0 39.5 -19t13.5 -56q0 -50 -46 -296l-14 -74q-29 -159 -39 -223.5t-10 -92.5q0 -23 7.5 -34.5t21.5 -11.5q29 0 110.5 82.5t165.5 202.5q77 108 119.5 214.5t63.5 238.5l36 21
q75 46 115 63zM542 1399h107l155 -350h-45l-174 243l-270 -243h-53z" />
    <glyph glyph-name="udieresis" unicode="&#xfc;" horiz-adv-x="1010" 
d="M864 928q-56 -242 -89.5 -452t-33.5 -296q0 -26 6 -36.5t21 -10.5t38 17.5t56 54.5l21 -21q-73 -88 -142 -143t-102 -55q-24 0 -37.5 18.5t-13.5 50.5q0 53 16 163t45 257q-153 -218 -301 -353.5t-223 -135.5q-26 0 -39.5 16.5t-13.5 48.5q0 81 51 321t51 365
q0 15 -4.5 22t-13.5 7q-12 0 -35 -16.5t-60 -51.5l-18 19q85 97 145 146.5t93 49.5q26 0 39.5 -19t13.5 -56q0 -50 -46 -296l-14 -74q-29 -159 -39 -223.5t-10 -92.5q0 -23 7.5 -34.5t21.5 -11.5q29 0 110.5 82.5t165.5 202.5q77 108 119.5 214.5t63.5 238.5l36 21
q75 46 115 63zM733 1288q35 0 61.5 -27t26.5 -61q0 -38 -25.5 -63t-62.5 -25q-36 0 -61 25.5t-25 60.5t26 62.5t60 27.5zM391 1288q34 0 61 -27t27 -61q0 -38 -25 -63t-63 -25q-36 0 -61 26t-25 62q0 33 27 60.5t59 27.5z" />
    <glyph glyph-name="dagger" unicode="&#x2020;" horiz-adv-x="854" 
d="M549 1327q24 -23 36.5 -41.5t12.5 -32.5q0 -5 -3 -20.5t-7 -31.5l-70 -271l215 28q13 3 26 4t27 1q20 0 40 -15t40 -45q-29 -30 -51 -43.5t-43 -13.5q-12 0 -24 1t-25 3l-211 28q3 -48 4.5 -75.5t1.5 -36.5q0 -37 -3 -119q-1 -12 -1 -18l-164 -852h-39l74 852
q17 69 35.5 131.5t38.5 118.5l-211 -29q-16 -2 -30.5 -3t-24.5 -1q-25 0 -45.5 14t-36.5 43q28 32 50.5 46t45.5 14q10 0 44 -4q4 0 7 -1l207 -28l8 272v9q3 72 76 116z" />
    <glyph glyph-name="degree" unicode="&#xb0;" horiz-adv-x="674" 
d="M338 1382q-86 0 -147.5 -61t-61.5 -147q0 -87 61 -147t148 -60t147 60t60 147q0 86 -60.5 147t-146.5 61zM338 1452q115 0 195.5 -81.5t80.5 -196.5t-81.5 -197t-196.5 -82q-117 0 -197 81t-80 198q0 116 81.5 197t197.5 81z" />
    <glyph glyph-name="cent" unicode="&#xa2;" horiz-adv-x="739" 
d="M515 1278l60 -4q-11 -46 -41 -184l-4 -19q27 8 49.5 12t41.5 4q51 0 77.5 -15.5t26.5 -45.5q0 -24 -25.5 -49t-72.5 -49q-23 30 -48.5 43.5t-60.5 13.5l-127 -712q52 7 107 39.5t123 97.5l24 -23q-68 -67 -133 -114.5t-135 -84.5l-20.5 -128.5t-14.5 -106.5l-61 4
q28 145 45 217q-2 -2 -2 -6q-30 -10 -56 -15.5t-49 -5.5q-74 0 -110.5 52t-36.5 155q0 243 103.5 421.5t303.5 279.5l21.5 129.5zM467 979q-96 -6 -166 -157t-70 -361q0 -90 26.5 -135t84.5 -56z" />
    <glyph glyph-name="sterling" unicode="&#xa3;" horiz-adv-x="991" 
d="M801 1008q18 36 26.5 67.5t8.5 63.5q0 61 -34.5 94t-99.5 33q-109 0 -165 -104.5t-103 -456.5h295l-6 -66l-295 6q-27 -179 -72 -294t-112 -179q17 3 33 4.5t34 1.5q75 0 201.5 -30.5t181.5 -30.5q74 0 117.5 37.5t71.5 126.5h37q-63 -198 -109.5 -248.5t-132.5 -50.5
q-84 0 -231 39.5t-199 39.5q-44 0 -88.5 -18.5t-98.5 -58.5l-28 41q210 144 242 600l1 20l-196 -6l6 66h195q15 306 121 452t315 146q99 0 165 -53.5t66 -131.5q0 -53 -29 -86t-77 -33q-8 0 -18.5 2.5t-22.5 6.5z" />
    <glyph glyph-name="section" unicode="&#xa7;" horiz-adv-x="854" 
d="M346 752q-66 0 -117 -50.5t-51 -115.5q0 -83 102 -179t177 -96q61 0 112.5 51t51.5 111q0 55 -28 101.5t-99 105.5q-48 40 -81 56t-67 16zM694 1159h-8q-40 48 -84.5 72t-91.5 24q-84 0 -135 -47t-51 -123q0 -59 34.5 -110t157.5 -150q134 -106 171.5 -163t37.5 -125
q0 -103 -77.5 -179.5t-192.5 -87.5q76 -56 108.5 -111.5t32.5 -125.5q0 -116 -100.5 -192.5t-257.5 -76.5q-99 0 -157 27t-58 72q0 15 9 33.5t29 44.5h7q45 -67 100 -99t121 -32q84 0 137 51.5t53 132.5q0 57 -39 111t-145 135q-9 6 -26 20q-195 149 -195 270
q0 100 77 174.5t195 88.5q-74 59 -106.5 114.5t-32.5 120.5q0 118 99.5 197.5t252.5 79.5q82 0 125 -19.5t43 -56.5q0 -17 -8 -34t-25 -36z" />
    <glyph glyph-name="bullet" unicode="&#x2022;" horiz-adv-x="1208" 
d="M307 762q0 123 87 209t210 86q122 0 208.5 -86.5t86.5 -208.5t-87.5 -209.5t-209.5 -87.5q-123 0 -209 87t-86 210z" />
    <glyph glyph-name="paragraph" unicode="&#xb6;" 
d="M940 1479v-70h-127v-1409h-82v1409h-186v-1409h-84v782q-174 8 -275.5 102.5t-101.5 245.5q0 157 107.5 253t285.5 96h463z" />
    <glyph glyph-name="germandbls" unicode="&#xdf;" horiz-adv-x="1018" 
d="M352 176q52 -63 110.5 -96t121.5 -33q78 0 128 53t50 138q0 67 -33.5 132.5t-130.5 170.5q-94 103 -119.5 146t-25.5 79q0 38 24 73t115 109q130 106 189 206t59 214q0 86 -46 140.5t-116 54.5q-95 0 -163 -71.5t-109 -215.5q-42 -142 -104 -542q-38 -247 -62 -386
q-45 -255 -99 -380t-145 -212q-80 -75 -178 -117t-193 -42q-62 0 -94.5 23.5t-32.5 68.5q0 26 10 51t31 53q56 -56 109.5 -81t113.5 -25q249 0 362 802l7 48q57 400 94.5 552t87.5 246q69 127 176.5 201t223.5 74q112 0 183 -73t71 -189q0 -110 -66.5 -202.5t-218.5 -193.5
q-7 -4 -20 -13q-113 -76 -113 -114q0 -36 85 -115q13 -12 19 -18q143 -134 187.5 -211t44.5 -162q0 -138 -109 -233.5t-268 -95.5q-89 0 -141 28t-52 76q0 21 9 40t28 42z" />
    <glyph glyph-name="registered" unicode="&#xae;" horiz-adv-x="1683" 
d="M723 717h33h35q119 0 183 45.5t64 130.5q0 74 -55.5 118t-151.5 44q-52 0 -80 -19t-28 -55v-264zM469 1090h393q147 0 231.5 -54t84.5 -145q0 -75 -68.5 -122.5t-220.5 -76.5q94 -31 141.5 -79t69.5 -134q6 -23 13 -64q14 -85 58 -85q37 0 54.5 32t17.5 99h41v-12
q0 -86 -40 -131.5t-116 -45.5q-45 0 -79 18.5t-48 51.5q-16 38 -17 111.5t-9 99.5q-21 66 -73.5 97.5t-141.5 31.5q-6 0 -18.5 -1t-18.5 -1v-246q0 -56 29 -78.5t102 -24.5v-40h-385v40q75 3 103 25t28 78v514q0 56 -28 77.5t-103 23.5v41zM844 1300q-122 0 -236 -48
t-200 -136q-88 -89 -134.5 -202t-46.5 -236q0 -125 47 -237.5t136 -200.5q89 -90 198.5 -136.5t233.5 -46.5q125 0 237 47t197 136q88 91 135 204t47 234q0 122 -48.5 239.5t-133.5 202.5q-86 86 -199 133t-233 47zM844 1376q137 0 265 -53.5t226 -151.5
q96 -96 149.5 -225.5t53.5 -267.5q0 -139 -53.5 -266.5t-153.5 -227.5q-99 -99 -225.5 -150.5t-267.5 -51.5q-138 0 -263 52.5t-225 151.5t-152.5 225t-52.5 267q0 140 52.5 267.5t150.5 225.5q97 98 226 151.5t270 53.5z" />
    <glyph glyph-name="copyright" unicode="&#xa9;" horiz-adv-x="1683" 
d="M1120 1093l31 1v-310h-37q-32 135 -104 205t-179 70q-125 0 -189 -95t-64 -280q0 -188 69 -285.5t203 -97.5q88 0 158.5 43.5t126.5 130.5l32 -22q-58 -105 -142.5 -156t-199.5 -51q-163 0 -280 122.5t-117 295.5q0 185 115 310.5t282 125.5q74 0 148 -34t82 -34
q28 0 44.5 16t20.5 45zM844 1300q-122 0 -236 -48t-200 -136q-89 -91 -135 -203t-46 -235q0 -125 47 -237.5t136 -200.5q89 -90 198.5 -136.5t233.5 -46.5q125 0 237 47t197 136q88 91 135 204t47 234q0 122 -48 239t-134 203t-199 133t-233 47zM844 1376q137 0 265 -53
t224 -149q97 -96 151 -227t54 -269q0 -137 -52.5 -264t-152.5 -228q-97 -99 -224 -151.5t-267 -52.5q-139 0 -264.5 52t-227.5 152q-100 99 -152.5 225t-52.5 267q0 140 52.5 267.5t150.5 225.5q97 98 226 151.5t270 53.5z" />
    <glyph glyph-name="trademark" unicode="&#x2122;" horiz-adv-x="1683" 
d="M795 1434h176l143 -406l154 406h168v-23l-31 -2q-21 0 -34 -15t-13 -40v-369q0 -25 13 -40t34 -15l31 -2v-25h-234v25l33 2q21 0 34 15t13 40v399l-182 -485h-13l-174 485v-399q0 -25 13 -40t35 -15l32 -2v-25h-198v25h32q22 0 34.5 15t12.5 40v371q0 24 -13.5 39.5
t-35.5 15.5l-30 2v23zM260 1434h438l11 -174h-25q-8 78 -41.5 114.5t-97.5 36.5h-23v-426q0 -25 13 -40t34 -15l33 -2v-25h-246v25l33 2q20 0 32.5 15.5t12.5 39.5v426h-22q-65 0 -98 -36.5t-40 -114.5h-24z" />
    <glyph glyph-name="acute" unicode="&#xb4;" 
d="M719 1272l-273 -223h-55l262 301q30 34 46 44.5t32 10.5q21 0 35 -14.5t14 -36.5q0 -30 -60 -81z" />
    <glyph glyph-name="dieresis" unicode="&#xa8;" 
d="M715 1288q35 0 61.5 -27t26.5 -61q0 -38 -25.5 -63t-62.5 -25q-36 0 -61 25.5t-25 60.5t26 62.5t60 27.5zM373 1288q34 0 61 -27t27 -61q0 -38 -25 -63t-63 -25q-36 0 -61 26t-25 62q0 33 27 60.5t59 27.5z" />
    <glyph glyph-name="notequal" unicode="&#x2260;" horiz-adv-x="1706" 
d="M1214 1169l74 -59l-205 -264h369v-96h-432l-215 -277h647v-98h-709l-254 -324l-73 60l205 264h-367v98h428l215 277h-643v96h707z" />
    <glyph glyph-name="AE" unicode="&#xc6;" horiz-adv-x="1745" 
d="M881 1223q-104 -133 -195.5 -263t-171.5 -258h369q15 115 29.5 240t29.5 281h-61zM672 1292q112 -6 203 -9t165 -3q274 0 517 11q31 1 36 1h15q20 0 27 -4t7 -14t-2 -24t-6 -29l-39 -154l-36 -8l8 56q1 4 1.5 11t0.5 23q0 31 -77.5 45.5t-373.5 26.5q-28 -126 -51 -254.5
t-41 -264.5h66q105 0 283 13q21 1 32 2l39 96l43 21q-22 -80 -39.5 -163t-30.5 -171l-41 -25l11 152q-71 8 -162 12t-211 4q-26 -174 -39.5 -313.5t-15.5 -257.5h90q109 0 216 8.5t191 23.5q71 14 90 53q2 4 2 5l37 76l39 10l-61 -200q-2 -6 -4 -13q-12 -43 -39 -43
q-8 0 -43 1q-225 7 -461 7q-122 0 -229 -2t-205 -6l12 41l176 33q31 143 56.5 287.5t45.5 289.5h-399q-144 -216 -225 -357.5t-107 -219.5l166 -33l-14 -41q-71 4 -131.5 6t-106.5 2q-47 0 -110 -2t-135 -6l14 41l145 33q169 204 374 489.5l464 677.5l-154 29z" />
    <glyph glyph-name="Oslash" unicode="&#xd8;" horiz-adv-x="1274" 
d="M985 1020l-342 -407l-338 -416q39 -71 101.5 -105.5t154.5 -34.5q209 0 332 190.5t123 516.5q0 86 -7.5 146.5t-23.5 109.5zM948 1094q-35 66 -98.5 99.5t-155.5 33.5q-204 0 -328 -200t-124 -535q0 -57 7.5 -111t22.5 -107l340 409zM1184 1405l90 -62
q-64 -63 -102 -104.5t-64 -73.5q41 -63 60.5 -140t19.5 -179q0 -182 -58 -342.5t-167 -282.5q-109 -121 -239 -183.5t-273 -62.5q-79 0 -140.5 22.5t-111.5 70.5q-56 -73 -151 -210l-5 -8l-82 64q47 46 94.5 98.5t96.5 112.5q-38 58 -57 138t-19 179q0 177 58.5 336.5
t166.5 280.5q104 116 236.5 181t265.5 65q71 0 133.5 -21.5t116.5 -64.5q34 42 67 88t64 98z" />
    <glyph glyph-name="infinity" unicode="&#x221e;" horiz-adv-x="1706" 
d="M897 559q52 -100 122 -149.5t159 -49.5q106 0 173.5 75t67.5 192q0 113 -62.5 187.5t-156.5 74.5q-86 0 -155 -74t-148 -256zM811 668q-52 99 -121.5 147.5t-159.5 48.5q-106 0 -173.5 -74.5t-67.5 -189.5q0 -112 63 -187t156 -75q87 0 156.5 75t146.5 255zM868 502
q-72 -140 -148.5 -203t-172.5 -63q-132 0 -223 107.5t-91 268.5q0 169 81 272t212 103q98 0 172.5 -63.5t139.5 -202.5q72 146 150 209t181 63q123 0 214.5 -109t91.5 -268q0 -168 -81 -271t-212 -103q-96 0 -169 60t-145 200z" />
    <glyph glyph-name="plusminus" unicode="&#xb1;" horiz-adv-x="1706" 
d="M254 150h1198v-99h-1198v99zM805 1169h98v-348h549v-98h-549v-348h-98v348h-551v98h551v348z" />
    <glyph glyph-name="lessequal" unicode="&#x2264;" horiz-adv-x="1706" 
d="M264 139h1178v-98h-1178v98zM1442 1182v-107l-1010 -338l1010 -336v-106l-1178 401v84z" />
    <glyph glyph-name="greaterequal" unicode="&#x2265;" horiz-adv-x="1706" 
d="M264 139h1178v-98h-1178v98zM264 1182l1178 -402v-84l-1178 -401v106l1010 336l-1010 338v107z" />
    <glyph glyph-name="yen" unicode="&#xa5;" horiz-adv-x="1071" 
d="M23 1292q99 -8 149 -11t86 -3q48 0 109.5 3.5t133.5 10.5l-12 -35l-143 -30q44 -152 209 -550l18 -44l53 75q249 354 326 519l-125 30l17 35q82 -8 126 -11t74 -3q44 0 93.5 3.5t105.5 10.5l-12 -35l-141 -30q-65 -70 -142.5 -166l-177.5 -230h252l-8 -61h-289
q-21 -28 -50.5 -72l-64.5 -100h381l-6 -61h-383q-18 -132 -29.5 -250.5t-17.5 -229.5l176 -34l-12 -33q-63 5 -125 7.5t-148 2.5q-88 0 -148.5 -2.5t-120.5 -7.5l11 33l183 34q22 102 40 221t31 259h-385l9 61h372l-10 26l-57 146h-283l8 61h250l-76.5 173.5l-103.5 222.5
l-156 30z" />
    <glyph glyph-name="mu" unicode="&#xb5;" horiz-adv-x="1079" 
d="M162 190q-23 -131 -44 -329q-31 -277 -106 -277q-34 0 -52.5 19.5t-18.5 54.5q0 40 60 279.5t99 429.5l111 518h129l-109 -509q-5 -26 -7.5 -49.5t-2.5 -45.5q0 -91 44.5 -144t119.5 -53q100 0 170 79t102 228l111 494h129l-115 -527q-11 -53 -16.5 -91.5t-5.5 -63.5
q0 -51 21 -79t59 -28q39 0 71.5 22.5t57.5 67.5q12 24 29 74q24 72 49 72q10 0 16 -9.5t6 -25.5q0 -27 -16.5 -80.5t-40.5 -93.5q-39 -68 -90.5 -102.5t-112.5 -34.5q-75 0 -113.5 45.5t-38.5 134.5v27q-44 -108 -112 -160.5t-162 -52.5q-95 0 -151.5 53.5t-69.5 156.5z" />
    <glyph glyph-name="partialdiff" unicode="&#x2202;" horiz-adv-x="1034" 
d="M752 592q12 83 18 160t6 149q0 158 -40 242t-115 84q-50 0 -108 -68.5t-103 -68.5q-31 0 -52.5 20t-21.5 47q0 62 63.5 107t155.5 45q165 0 264 -150.5t99 -406.5q0 -334 -136 -556.5t-333 -222.5q-143 0 -233.5 107t-90.5 278q0 179 109 304.5t262 125.5q98 0 160.5 -48
t95.5 -148zM711 463q0 128 -45 193t-134 65q-113 0 -186.5 -124.5t-73.5 -322.5q0 -126 44.5 -188.5t134.5 -62.5q112 0 186 125.5t74 314.5z" />
    <glyph glyph-name="summation" unicode="&#x2211;" horiz-adv-x="1409" 
d="M12 1473h1110l90 -322h-71l-62 213q-5 21 -23.5 31t-54.5 10h-780l907 -862v-37l-886 -772h899q58 0 75.5 13t28.5 50l74 230h70l-127 -420h-1250v18l989 856l-989 946v46z" />
    <glyph glyph-name="product" unicode="&#x220f;" horiz-adv-x="1567" 
d="M59 1473h1448v-68h-188v-1731h188v-67h-524v67h201v1731h-803v-1731h203v-67h-525v67h187v1731h-187v68z" />
    <glyph glyph-name="pi" unicode="&#x3c0;" horiz-adv-x="1321" 
d="M1292 885l-28 -129h-320q-40 -203 -68 -492q-30 -307 -116 -307q-34 0 -55 22t-21 56q0 51 79.5 290.5t125.5 430.5h-367q-38 -199 -67 -486q-31 -313 -117 -313q-34 0 -55 22t-21 56q0 52 79 292.5t126 428.5h-127q-135 0 -176.5 -46t-73.5 -190h-63q34 197 112.5 281
t227.5 84h925z" />
    <glyph glyph-name="integral" unicode="&#x222b;" horiz-adv-x="985" 
d="M293 -272q104 0 117 713q2 127 4 196q11 486 98 698.5t268 212.5q70 0 114 -37t44 -96q0 -48 -28.5 -76t-78.5 -28q-78 0 -103 69.5t-34 69.5q-105 0 -116 -623q-4 -185 -7 -289q-15 -497 -101 -703t-267 -206q-69 0 -113.5 36t-44.5 91q0 51 31 81t82 30
q36 0 61.5 -16.5t40.5 -51.5q4 -9 7 -33q4 -38 26 -38z" />
    <glyph glyph-name="ordfeminine" unicode="&#xaa;" horiz-adv-x="709" 
d="M500 1217h-25q-17 0 -41.5 1t-30.5 1q-69 0 -109.5 -19t-72.5 -63q-38 -55 -66 -162t-28 -209q0 -20 7.5 -32.5t19.5 -12.5q21 0 63.5 34.5t93.5 94.5q74 86 121 177t68 190zM618 1286q-44 -144 -69 -284t-25 -224q0 -25 4 -34t13 -9q8 0 20.5 9.5t34.5 33.5l18 -14
q-57 -60 -105 -94.5t-73 -34.5q-17 0 -25 12t-8 39q0 34 12 112.5t34 178.5q-105 -149 -217.5 -245.5t-170.5 -96.5q-23 0 -33 22t-10 74q0 247 137.5 401t348.5 154h78h36z" />
    <glyph glyph-name="ordmasculine" unicode="&#xba;" horiz-adv-x="606" 
d="M305 1221q-85 0 -133.5 -96t-48.5 -265q0 -77 26.5 -114t81.5 -37q79 0 131 96.5t52 245.5q0 86 -27 128t-82 42zM387 1290q68 0 102.5 -44.5t34.5 -131.5q0 -81 -25.5 -160.5t-70.5 -138.5q-57 -76 -139 -128t-144 -52q-65 0 -98 40t-33 120q0 113 33 208t92 154
q65 63 130.5 98t117.5 35z" />
    <glyph glyph-name="Omega" unicode="&#x3a9;" horiz-adv-x="1565" 
d="M1087 150v-25h316l74 219h59l-102 -344h-494q148 250 221.5 465.5t73.5 400.5q0 265 -118.5 414.5t-330.5 149.5q-213 0 -331.5 -149t-118.5 -415q0 -184 73.5 -398.5t223.5 -467.5h-496l-102 344h59l74 -219h315v25q-156 201 -227.5 376t-71.5 353q0 276 167.5 447
t434.5 171q268 0 434 -171t166 -447q0 -179 -70.5 -352.5t-228.5 -376.5z" />
    <glyph glyph-name="ae" unicode="&#xe6;" horiz-adv-x="1190" 
d="M729 471q-11 -57 -16.5 -108t-5.5 -99q0 -79 28 -122.5t80 -43.5q47 0 106.5 37.5t120.5 106.5l21 -23q-94 -110 -199.5 -177t-181.5 -67q-64 0 -95.5 51t-31.5 154q0 68 13 143.5t38 159.5q-140 -220 -294 -364t-232 -144q-30 0 -43.5 32.5t-13.5 107.5q0 365 186 579.5
t504 214.5q23 0 48.5 -1t57.5 -3q-11 -33 -19.5 -63.5l-17.5 -63.5q82 71 149 107.5t118 36.5q52 0 80 -28t28 -79q0 -103 -123 -204t-305 -140zM739 520q111 0 184.5 68t73.5 168q0 33 -17 52t-46 19q-66 0 -119 -82t-76 -225zM666 807h-35h-99q-93 0 -145.5 -25.5
t-93.5 -87.5q-50 -77 -87.5 -230.5t-37.5 -299.5q0 -30 9.5 -48t25.5 -18q27 0 83.5 50t125.5 137q98 123 160 250.5t94 271.5z" />
    <glyph glyph-name="oslash" unicode="&#xf8;" horiz-adv-x="809" 
d="M549 645l-141.5 -176.5l-225.5 -288.5q14 -46 45 -69t80 -23q106 0 175 138t69 352l-1 22.5t-1 44.5zM530 725q-17 46 -48.5 70t-75.5 24q-119 0 -179 -140t-63 -420l190 236zM748 993l53 -39l-121 -145q9 -31 13.5 -64.5t4.5 -74.5q0 -118 -33 -230.5t-94 -199.5
q-74 -109 -185 -183.5t-193 -74.5q-44 0 -77.5 14.5t-54.5 42.5l-104 -137l-51 41l129 151q-10 29 -14.5 56.5t-4.5 56.5q0 161 45 298t125 222q86 91 174 142t160 51q44 0 74.5 -14.5t50.5 -43.5z" />
    <glyph glyph-name="questiondown" unicode="&#xbf;" horiz-adv-x="883" 
d="M571 1001q34 -19 51 -53t17 -82q0 -75 -41.5 -141.5t-187.5 -187.5q-140 -118 -180 -186.5t-40 -151.5q0 -84 41.5 -131.5t114.5 -47.5q69 0 110.5 36t41.5 96q0 20 -6.5 42t-20.5 48q21 11 40.5 16.5t41.5 5.5q37 0 58.5 -24t21.5 -66q0 -77 -87.5 -138t-209.5 -61
q-132 0 -210.5 70.5t-78.5 187.5q0 74 35 137t111 124q55 44 177 114q61 35 91 54q62 38 88 77t26 90q0 40 -16 69t-49 48q14 17 29 31t32 24zM608 1305q34 0 55 -23t21 -59q0 -48 -30.5 -82.5t-71.5 -34.5q-31 0 -53.5 21.5t-22.5 52.5q0 52 30 88.5t72 36.5z" />
    <glyph glyph-name="exclamdown" unicode="&#xa1;" horiz-adv-x="639" 
d="M340 983l37 -8q-44 -288 -67 -488.5t-23 -300.5q0 -52 8.5 -74t28.5 -22q10 0 22 5.5t25 15.5l10 -25q-66 -53 -120.5 -82t-88.5 -29q-28 0 -42.5 17.5t-14.5 50.5q0 31 24 127q7 28 10 42zM424 1307q34 0 55 -23t21 -59q0 -48 -30.5 -83.5t-72.5 -35.5q-31 0 -53 21.5
t-22 52.5q0 53 30 90t72 37z" />
    <glyph glyph-name="logicalnot" unicode="&#xac;" horiz-adv-x="1706" 
d="M254 858h1198v-502h-96v402h-1102v100z" />
    <glyph glyph-name="radical" unicode="&#x221a;" horiz-adv-x="1276" 
d="M1098 1636h178v-71h-125l-594 -1606h-41l-328 899l-114 -39l-19 58l246 86l272 -746z" />
    <glyph glyph-name="florin" unicode="&#x192;" horiz-adv-x="778" 
d="M854 1141q-42 22 -83.5 33.5t-82.5 11.5q-91 0 -136 -83.5t-79 -354.5h31h33q68 0 101 7t58 23l9 -14q-31 -53 -80 -75.5t-138 -22.5l-28 -1q-6 -38 -16 -111q-79 -574 -197 -734q-76 -104 -189 -167t-223 -63q-51 0 -78.5 22.5t-27.5 63.5q0 25 9.5 47t29.5 44
q48 -44 93 -65t89 -21q233 0 354 872q11 78 16 119q-16 0 -38 1t-27 1q-53 0 -90.5 -8t-50.5 -21l-15 12q32 55 76 77t127 22h29q48 233 182.5 388.5t271.5 155.5q46 0 70.5 -20.5t24.5 -60.5q0 -20 -6 -39t-19 -39z" />
    <glyph glyph-name="approxequal" unicode="&#x2248;" horiz-adv-x="1706" 
d="M1530 580v-111q-106 -74 -201 -109.5t-186 -35.5q-101 0 -291 69.5t-287 69.5q-82 0 -171 -36.5t-216 -123.5v111q107 74 202 109.5t185 35.5q109 0 298.5 -68.5t279.5 -68.5q86 0 175 35.5t212 122.5zM1530 918v-111q-104 -74 -199 -109.5t-188 -35.5q-103 0 -292 69.5
t-286 69.5q-82 0 -171 -36.5t-216 -123.5v113q105 73 201 109t186 36q109 0 298.5 -69.5t279.5 -69.5q84 0 171 34.5t216 123.5z" />
    <glyph glyph-name="Delta" unicode="&#x2206;" horiz-adv-x="1081" 
d="M514 1247l-391 -1118h766zM532 1497h29l512 -1497h-1067z" />
    <glyph glyph-name="guillemotleft" unicode="&#xab;" horiz-adv-x="920" 
d="M836 854l28 -23q-55 -88 -129 -176t-164 -172q56 -74 97 -163t65 -187l-37 -20q-63 112 -135.5 200.5t-154.5 155.5l4 27q101 62 208.5 152t217.5 206zM465 854l29 -23q-57 -92 -130.5 -180t-160.5 -168q55 -74 96.5 -163t65.5 -187l-39 -20q-64 112 -136.5 200.5
t-154.5 155.5l6 27q100 61 206 150.5t218 207.5z" />
    <glyph glyph-name="guillemotright" unicode="&#xbb;" horiz-adv-x="920" 
d="M518 854q66 -116 139 -205.5t152 -152.5l-4 -27q-102 -62 -209 -152.5t-217 -205.5l-27 22q60 97 133.5 185t157.5 165q-55 74 -96.5 163t-65.5 185zM147 854q65 -114 139 -204t154 -154l-6 -27q-99 -61 -205.5 -151t-218.5 -207l-28 22q59 97 132.5 185t157.5 165
q-55 74 -96 163t-65 185z" />
    <glyph glyph-name="ellipsis" unicode="&#x2026;" horiz-adv-x="2048" 
d="M264 174q32 0 53 -21t21 -53q0 -52 -30 -88.5t-73 -36.5q-33 0 -53 22t-20 58q0 48 30.5 83.5t71.5 35.5zM946 174q32 0 53 -21t21 -53q0 -52 -30 -88.5t-73 -36.5q-33 0 -53 22t-20 58q0 48 30.5 83.5t71.5 35.5zM1630 174q32 0 53 -21t21 -53q0 -52 -30 -88.5
t-73 -36.5q-33 0 -53 22t-20 58q0 48 30.5 83.5t71.5 35.5z" />
    <glyph glyph-name="nonbreakingspace" unicode="&#xa0;" horiz-adv-x="1071" 
 />
    <glyph glyph-name="Agrave" unicode="&#xc0;" horiz-adv-x="1276" 
d="M686 1153l-174.5 -323l-146.5 -289h448q-32 177 -63.5 327t-63.5 285zM813 1337q22 -223 88.5 -558.5t167.5 -721.5l162 -32l-12 -35q-80 6 -191 9q-33 0 -47 1q-61 0 -127.5 -2.5t-136.5 -7.5l14 35l155 32q-3 69 -16.5 163.5t-46.5 273.5h-481q-97 -200 -133.5 -288
t-50.5 -149l166 -32l-15 -35q-66 5 -139 7.5t-74 2.5q-62 0 -124 -2.5t-123 -7.5l14 35l145 32q288 466 482 826t194 411v4zM686 1716l199 -282h-54l-225 223l-18 18q-43 41 -43 66q0 22 14.5 35.5t38.5 13.5q34 0 82 -66z" />
    <glyph glyph-name="Atilde" unicode="&#xc3;" horiz-adv-x="1276" 
d="M686 1153l-174.5 -323l-146.5 -289h448q-32 177 -63.5 327t-63.5 285zM813 1337q22 -223 88.5 -558.5t167.5 -721.5l162 -32l-12 -35q-80 6 -191 9q-33 0 -47 1q-61 0 -127.5 -2.5t-136.5 -7.5l14 35l155 32q-3 69 -16.5 163.5t-46.5 273.5h-481q-97 -200 -133.5 -288
t-50.5 -149l166 -32l-15 -35q-66 5 -139 7.5t-74 2.5q-62 0 -124 -2.5t-123 -7.5l14 35l145 32q288 466 482 826t194 411v4zM1018 1702h41q-24 -92 -65 -136t-103 -44q-16 0 -31.5 2t-30.5 6l-133 33h-2q-52 14 -72 14q-38 0 -62.5 -20t-35.5 -60h-39q19 90 58.5 132
t105.5 42q14 0 34 -3t44 -9l137 -35q4 -1 11 -2q29 -6 40 -6q40 0 65 21t38 65z" />
    <glyph glyph-name="Otilde" unicode="&#xd5;" horiz-adv-x="1274" 
d="M694 1227q-205 0 -327.5 -200.5t-122.5 -541.5q0 -212 81.5 -320t241.5 -108q203 0 326 192.5t123 508.5q0 238 -79.5 353.5t-242.5 115.5zM788 1305q197 0 298.5 -117.5t101.5 -345.5q0 -178 -58.5 -339t-166.5 -282q-107 -119 -236.5 -182.5t-265.5 -63.5
q-187 0 -286 120.5t-99 346.5q0 161 47.5 307.5t136.5 262.5q102 133 247 213t281 80zM1094 1702h41q-24 -92 -65 -136t-103 -44q-16 0 -31.5 2t-30.5 6l-133 33h-2q-52 14 -72 14q-38 0 -62.5 -20t-35.5 -60h-39q19 90 58.5 132t105.5 42q14 0 34 -3t44 -9l137 -35
q4 -1 11 -2q29 -6 40 -6q40 0 65 21t38 65z" />
    <glyph glyph-name="OE" unicode="&#x152;" horiz-adv-x="1866" 
d="M768 1235q-238 0 -380 -201.5t-142 -539.5q0 -242 92 -354.5t289 -112.5q131 0 193.5 40.5t82.5 141.5q13 60 34.5 205t47.5 342l17 123q22 166 22 196q0 81 -63 120.5t-193 39.5zM1055 64q18 -2 37.5 -2.5t54.5 -0.5q120 0 231 9.5t176 23.5q45 9 61.5 18t33.5 42l37 75
l36 11l-59 -201q-1 -3 -3 -10q-16 -49 -42 -49q-6 0 -36 2q-253 18 -548 18q-83 0 -240.5 -13.5t-230.5 -13.5q-246 0 -363.5 122.5t-117.5 377.5q0 147 46 288t134 261q100 135 230.5 201.5t295.5 66.5q52 0 189.5 -12t224.5 -12q234 0 463 16q36 2 43 2q19 0 25.5 -4
t7.5 -16q0 -8 -2 -18.5t-8 -33.5l-39 -153l-37 -6l8 53q1 11 2.5 22.5t1.5 12.5q0 32 -83 47t-370 26q-25 -117 -48.5 -246.5t-43.5 -267.5h78h60q82 0 137 2t108 7l39 96l43 20q-26 -91 -43.5 -172.5t-27.5 -160.5l-39 -25l8 151q-88 9 -181.5 13t-191.5 4
q-22 -163 -36 -303.5t-21 -267.5z" />
    <glyph glyph-name="oe" unicode="&#x153;" horiz-adv-x="1133" 
d="M672 471q-12 -58 -17.5 -109t-5.5 -98q0 -80 29.5 -125t81.5 -45q44 0 101.5 37.5t123.5 110.5l23 -23q-93 -109 -200 -175.5t-183 -66.5q-62 0 -93 44.5t-33 133.5q-86 -88 -163.5 -133t-142.5 -45q-86 0 -130.5 59.5t-44.5 174.5q0 161 44.5 297.5t123.5 218.5
q87 91 174.5 142t155.5 51q71 0 115 -43t59 -127q84 79 165 124.5t136 45.5q53 0 81 -27t28 -78q0 -103 -123 -204t-305 -140zM684 520q110 0 183 68t73 168q0 32 -16.5 49.5t-46.5 17.5q-67 0 -118.5 -80t-74.5 -223zM406 823q-113 0 -177.5 -138t-64.5 -380
q0 -109 34.5 -160t108.5 -51q106 0 175 135.5t69 348.5q0 122 -35.5 182t-109.5 63z" />
    <glyph glyph-name="endash" unicode="&#x2013;" 
d="M-41 526h1024l-16 -100h-1024z" />
    <glyph glyph-name="emdash" unicode="&#x2014;" horiz-adv-x="2048" 
d="M-51 526h2066l-14 -100h-2067z" />
    <glyph glyph-name="quotedblleft" unicode="&#x201c;" horiz-adv-x="750" 
d="M659 1305l25 -21q-48 -53 -69 -101.5t-21 -107.5q0 -31 12 -62.5t35 -60.5l-75 -67q-4 -3 -8 -7q-15 -13 -26 -14q-28 0 -48.5 39t-20.5 96q0 62 46 134t150 172zM383 1305l27 -21q-49 -53 -70 -101.5t-21 -107.5q0 -31 12 -62.5t36 -60.5l-77 -68l-3 -3q-19 -16 -31 -17
q-28 0 -48 39t-20 96q0 63 46.5 135.5t148.5 170.5z" />
    <glyph glyph-name="quotedblright" unicode="&#x201d;" horiz-adv-x="750" 
d="M502 866l-27 23q49 55 69.5 101t20.5 95q0 38 -11.5 71t-35.5 63l76 67q2 2 8 7q14 13 25 14q28 0 48.5 -39t20.5 -97q0 -61 -45.5 -133t-148.5 -172zM225 866l-24 23q48 55 69 101t21 95q0 38 -11.5 71t-35.5 63l75 67q4 3 7 6q16 14 26 15q29 0 49.5 -39t20.5 -97
q0 -60 -46 -131.5t-151 -173.5z" />
    <glyph glyph-name="quoteleft" unicode="&#x2018;" horiz-adv-x="473" 
d="M383 1305l27 -21q-49 -53 -70 -101.5t-21 -107.5q0 -31 12 -62.5t36 -60.5l-77 -68l-3 -3q-19 -16 -31 -17q-28 0 -48 39t-20 96q0 63 46.5 135.5t148.5 170.5z" />
    <glyph glyph-name="quoteright" unicode="&#x2019;" horiz-adv-x="473" 
d="M225 866l-24 23q48 55 69 101t21 95q0 38 -11.5 71t-35.5 63l75 67q4 3 7 6q16 14 26 15q29 0 49.5 -39t20.5 -97q0 -60 -46 -131.5t-151 -173.5z" />
    <glyph glyph-name="divide" unicode="&#xf7;" horiz-adv-x="1706" 
d="M854 365q45 0 76 -31t31 -76q0 -44 -31 -75t-76 -31t-75.5 31t-30.5 75t31 75.5t75 31.5zM254 659h1198v-98h-1198v98zM854 1071q44 0 75.5 -32t31.5 -76q0 -45 -31 -76t-76 -31t-75.5 30.5t-30.5 76.5q0 44 31.5 76t74.5 32z" />
    <glyph glyph-name="lozenge" unicode="&#x25ca;" horiz-adv-x="1012" 
d="M506 1409l-385 -817l385 -825l385 825zM506 1653l500 -1061l-500 -1069l-500 1069z" />
    <glyph glyph-name="ydieresis" unicode="&#xff;" horiz-adv-x="967" 
d="M864 928q-60 -235 -104 -559t-54 -376q-40 -226 -106.5 -354.5t-187.5 -230.5q-82 -70 -182.5 -108.5t-198.5 -38.5q-72 0 -111 25t-39 71q0 17 8 37t23 41q59 -35 123 -51.5t141 -16.5q190 0 283.5 188.5t183.5 915.5q-141 -211 -291.5 -348t-226.5 -137
q-26 0 -39.5 16.5t-13.5 48.5q0 81 51 321t51 365q0 15 -4.5 22t-13.5 7q-12 0 -35 -16.5t-60 -51.5l-18 19q85 97 145 146.5t93 49.5q26 0 39.5 -19t13.5 -56q0 -50 -46 -296l-14 -74q-29 -159 -39 -223.5t-10 -92.5q0 -23 7.5 -34.5t21.5 -11.5q29 0 110.5 82.5
t165.5 202.5q77 108 119.5 214.5t63.5 238.5l36 21q75 46 115 63zM686 1288q35 0 61.5 -27t26.5 -61q0 -38 -25.5 -63t-62.5 -25q-36 0 -61 25.5t-25 60.5t26 62.5t60 27.5zM344 1288q34 0 61 -27t27 -61q0 -38 -25 -63t-63 -25q-36 0 -61 26t-25 62q0 33 27 60.5t59 27.5z
" />
    <glyph glyph-name="Ydieresis" unicode="&#x178;" horiz-adv-x="1128" 
d="M49 1292q100 -8 150 -11t86 -3q48 0 109.5 3.5t133.5 10.5l-14 -32l-141 -33q44 -152 209 -550l18 -44l38 55q258 368 339 539l-123 33l16 32q86 -8 127.5 -11t71.5 -3q44 0 94.5 3.5t105.5 10.5l-14 -32l-139 -33q-143 -162 -264.5 -321t-216.5 -308
q-22 -145 -35.5 -279.5t-19.5 -263.5l178 -32l-13 -33q-62 5 -124 7.5t-148 2.5q-89 0 -150 -2.5t-122 -7.5l14 33l182 32q24 112 42.5 239.5t31.5 280.5q-49 134 -113 283t-168 369l-153 33zM867 1673q35 0 61.5 -27t26.5 -61q0 -38 -25.5 -63t-62.5 -25q-36 0 -61 25.5
t-25 60.5t26 62.5t60 27.5zM525 1673q34 0 61 -27t27 -61q0 -38 -25 -63t-63 -25q-36 0 -61 26t-25 62q0 33 27 60.5t59 27.5z" />
    <glyph glyph-name="fraction" unicode="&#x2215;" horiz-adv-x="342" 
d="M575 1343l93 -59l-459 -664.5l-440 -672.5l-88 65l460.5 661.5z" />
    <glyph glyph-name="currency" unicode="&#xa4;" horiz-adv-x="1071" 
d="M1100 1176q0 -43 -103 -129l-20 -17l-6 2q-10 93 -70 141t-168 48q-118 0 -208.5 -111.5t-133.5 -308.5h457l-23 -62h-446q-6 -39 -10.5 -82t-7.5 -90h395l-23 -61h-377v-47q0 -189 58.5 -288t171.5 -99q89 0 181 26.5t177 77.5l-6 -59q-108 -70 -225.5 -106t-241.5 -36
q-136 0 -207 104.5t-71 305.5q0 31 1.5 61.5t3.5 59.5h-180l23 61h164q6 45 15 88t22 84h-193l23 62h190q34 94 83.5 176t111.5 145q85 88 183 134.5t196 46.5q118 0 191 -36t73 -91z" />
    <glyph glyph-name="guilsinglleft" unicode="&#x2039;" horiz-adv-x="551" 
d="M465 854l29 -23q-57 -92 -130.5 -180t-160.5 -168q55 -74 96.5 -163t65.5 -187l-39 -20q-64 112 -136.5 200.5t-154.5 155.5l6 27q100 61 206 150.5t218 207.5z" />
    <glyph glyph-name="guilsinglright" unicode="&#x203a;" horiz-adv-x="551" 
d="M147 854q65 -114 139 -204t154 -154l-6 -27q-99 -61 -205.5 -151t-218.5 -207l-28 22q59 97 132.5 185t157.5 165q-55 74 -96 163t-65 185z" />
    <glyph glyph-name="fi" unicode="&#xf001;" horiz-adv-x="1028" 
d="M850 1290q32 0 53 -21t21 -52q0 -53 -30.5 -90t-72.5 -37q-33 0 -53 22t-20 59q0 48 30.5 83.5t71.5 35.5zM793 1450q-50 22 -93 32.5t-82 10.5q-96 0 -151.5 -121.5t-112.5 -507.5q50 -4 92.5 -6t73.5 -2q122 0 260 49q41 15 51 15q18 0 27.5 -14.5t9.5 -41.5
q0 -26 -31 -189l-32 -173q-19 -105 -31 -194.5t-12 -114.5q0 -23 6.5 -36.5t17.5 -13.5q15 0 33 15.5t51 58.5l25 -18q-76 -104 -143 -164t-107 -60q-23 0 -34 17t-11 51q0 47 42 279l22 118q24 138 35.5 222t11.5 129q0 25 -7.5 34t-29.5 9q-16 0 -116 -29t-189 -29h-29
q-62 -524 -117.5 -752.5t-140.5 -377.5q-105 -183 -275 -283t-374 -100q-101 0 -157 31t-56 85q0 27 9.5 49t31.5 46q62 -60 145.5 -91.5t177.5 -31.5q149 0 258 86t170 252q43 117 88 383t98 710q-64 -2 -106 -8.5t-74 -19.5l-8 16q57 53 102.5 74.5t98.5 21.5
q48 324 198 534t314 210q46 0 70 -21t24 -61q0 -20 -6 -38.5t-18 -39.5z" />
    <glyph glyph-name="fl" unicode="&#xf002;" horiz-adv-x="1053" 
d="M1300 1450q-59 24 -94 32.5t-67 8.5q-70 0 -115.5 -71t-89.5 -265q-64 -281 -101.5 -553.5t-37.5 -390.5q0 -36 5.5 -47.5t20.5 -11.5q10 0 30 14.5t48 42.5l23 -21q-94 -109 -151.5 -158.5t-90.5 -49.5q-22 0 -33.5 20t-11.5 59q0 104 31 331.5t84 473.5q43 199 96 335
t123 231q-46 28 -98 42.5t-111 14.5q-172 0 -271 -151.5t-135 -471.5l84.5 -5.5t53.5 -2.5q64 0 92 6t49 21l10 -21q-42 -44 -106.5 -65t-163.5 -21h-33q-68 -554 -122 -770t-136 -360q-105 -183 -275 -283t-374 -100q-101 0 -157 31t-56 85q0 27 9.5 49t31.5 46
q62 -60 145.5 -91.5t177.5 -31.5q149 0 258 86t170 252q39 103 78 326t108 767q-64 -2 -105 -8.5t-73 -19.5l-8 16q57 53 102.5 74.5t98.5 21.5q41 315 220 510t419 195q62 0 113.5 -13t87.5 -38q50 42 97.5 64t90.5 22q42 0 63 -20t21 -58q0 -20 -6 -38.5t-19 -39.5z" />
    <glyph glyph-name="daggerdbl" unicode="&#x2021;" horiz-adv-x="854" 
d="M549 1327q26 -24 37.5 -41.5t11.5 -32.5q0 -4 -3 -20t-7 -33l-70 -250l215 31q13 2 25 3t28 1q20 0 40 -15t40 -44q-27 -30 -50 -44t-44 -14q-12 0 -24 1t-25 3l-211 27q1 -8 2 -23q6 -77 8 -115q-14 -41 -26.5 -74t-26.5 -64l215 28q14 2 26.5 3t28.5 1q18 0 38.5 -15.5
t39.5 -43.5q-28 -30 -51 -43.5t-45 -13.5q-14 0 -25.5 1t-23.5 3l-209 28q6 -39 10.5 -80t7.5 -86l-131 -628h-39l41 629q15 54 28 93t28 72l-209 -28q-21 -3 -35 -4.5t-21 -1.5q-24 0 -44 14t-38 45q29 32 51.5 45.5t45.5 13.5q15 0 26.5 -1t22.5 -3l209 -28q-2 24 -3 53
t-1 86q8 29 19 61.5t28 75.5l-211 -27q-15 -2 -29 -3t-26 -1q-25 0 -45.5 14.5t-36.5 43.5q28 32 51 45.5t47 13.5q10 0 37 -3q8 -1 12 -1l207 -31l8 252v9q3 72 76 116z" />
    <glyph glyph-name="periodcentered" unicode="&#xb7;" horiz-adv-x="508" 
d="M254 737q38 0 66 -28.5t28 -67.5q0 -38 -28 -67t-66 -29t-66 29t-28 67q0 39 28 67.5t66 28.5z" />
    <glyph glyph-name="quotesinglbase" unicode="&#x201a;" horiz-adv-x="473" 
d="M53 -252l-26 23q49 56 70.5 102.5t21.5 95.5q0 36 -12 68t-37 63l77 68q4 3 7 6q16 14 26 14q28 0 48 -38.5t20 -96.5q0 -61 -45.5 -133t-149.5 -172z" />
    <glyph glyph-name="quotedblbase" unicode="&#x201e;" horiz-adv-x="750" 
d="M328 -252l-27 23q49 56 70.5 102.5t21.5 95.5q0 38 -11.5 69.5t-35.5 61.5l76 68q2 2 8 7q14 13 25 13q28 0 47.5 -38.5t19.5 -96.5q0 -61 -45.5 -133t-148.5 -172zM53 -252l-26 23q49 56 70.5 102.5t21.5 95.5q0 36 -12 68t-37 63l77 68q4 3 7 6q16 14 26 14
q28 0 48 -38.5t20 -96.5q0 -61 -45.5 -133t-149.5 -172z" />
    <glyph glyph-name="perthousand" unicode="&#x2030;" horiz-adv-x="2247" 
d="M1178 1343l90 -59l-436 -632.5l-461 -704.5l-90 65l464 666zM1909 735q-89 0 -146 -126t-57 -326q0 -114 31.5 -174t91.5 -60q85 0 142 128t57 327q0 114 -30 172.5t-89 58.5zM1212 735q-88 0 -145 -126t-57 -326q0 -114 31.5 -174t91.5 -60q84 0 141 128t57 327
q0 114 -30 172.5t-89 58.5zM1970 805q99 0 147 -59t48 -183q0 -242 -127.5 -416t-288.5 -174q-87 0 -130.5 64t-43.5 190q0 240 119.5 409t275.5 169zM1274 805q99 0 146.5 -59t47.5 -183q0 -242 -127.5 -416t-287.5 -174q-87 0 -130.5 64t-43.5 190q0 240 119.5 409
t275.5 169zM418 1231q-89 0 -146 -126t-57 -327q0 -113 32 -173t91 -60q85 0 142 127.5t57 326.5q0 115 -30 173.5t-89 58.5zM479 1300q99 0 147 -60t48 -183q0 -242 -128 -417t-288 -175q-86 0 -130 65t-44 193q0 240 119.5 408.5t275.5 168.5z" />
    <glyph glyph-name="Acircumflex" unicode="&#xc2;" horiz-adv-x="1276" 
d="M686 1153l-174.5 -323l-146.5 -289h448q-32 177 -63.5 327t-63.5 285zM813 1337q22 -223 88.5 -558.5t167.5 -721.5l162 -32l-12 -35q-80 6 -191 9q-33 0 -47 1q-61 0 -127.5 -2.5t-136.5 -7.5l14 35l155 32q-3 69 -16.5 163.5t-46.5 273.5h-481q-97 -200 -133.5 -288
t-50.5 -149l166 -32l-15 -35q-66 5 -139 7.5t-74 2.5q-62 0 -124 -2.5t-123 -7.5l14 35l145 32q288 466 482 826t194 411v4zM747 1784h107l155 -350h-45l-174 243l-270 -243h-53z" />
    <glyph glyph-name="Ecircumflex" unicode="&#xca;" horiz-adv-x="1143" 
d="M172 1288q105 -8 200 -12t185 -4q194 0 399 13q45 3 56 3q22 0 30.5 -5t8.5 -19q0 -12 -2.5 -25.5t-6.5 -26.5l-38 -153l-37 -6l6 53q1 11 2.5 23l1.5 12q0 32 -83 47t-370 26q-25 -117 -48.5 -246.5t-43.5 -267.5h78h59q82 0 137.5 2t108.5 7l39 96l43 20
q-26 -91 -44 -172.5t-28 -160.5l-39 -25l9 151q-88 9 -181.5 13t-191.5 4q-23 -154 -37 -297t-18 -274q13 -1 44 -2t48 -1q117 0 227 9.5t178 23.5q45 9 61.5 18t32.5 42l37 75l39 11l-61 -201q-12 -38 -19 -44.5t-26 -6.5q-8 0 -49 2q-223 10 -449 10q-174 0 -266.5 -3
t-175.5 -9l14 35l176 34q67 330 107.5 622.5t54.5 543.5l-182 32zM671 1784h107l155 -350h-45l-174 243l-270 -243h-53z" />
    <glyph glyph-name="Aacute" unicode="&#xc1;" horiz-adv-x="1276" 
d="M686 1153l-174.5 -323l-146.5 -289h448q-32 177 -63.5 327t-63.5 285zM813 1337q22 -223 88.5 -558.5t167.5 -721.5l162 -32l-12 -35q-80 6 -191 9q-33 0 -47 1q-61 0 -127.5 -2.5t-136.5 -7.5l14 35l155 32q-3 69 -16.5 163.5t-46.5 273.5h-481q-97 -200 -133.5 -288
t-50.5 -149l166 -32l-15 -35q-66 5 -139 7.5t-74 2.5q-62 0 -124 -2.5t-123 -7.5l14 35l145 32q288 466 482 826t194 411v4zM942 1657l-273 -223h-55l262 301q30 34 46 44.5t32 10.5q21 0 35 -14.5t14 -36.5q0 -30 -60 -81z" />
    <glyph glyph-name="Edieresis" unicode="&#xcb;" horiz-adv-x="1143" 
d="M172 1288q105 -8 200 -12t185 -4q194 0 399 13q45 3 56 3q22 0 30.5 -5t8.5 -19q0 -12 -2.5 -25.5t-6.5 -26.5l-38 -153l-37 -6l6 53q1 11 2.5 23l1.5 12q0 32 -83 47t-370 26q-25 -117 -48.5 -246.5t-43.5 -267.5h78h59q82 0 137.5 2t108.5 7l39 96l43 20
q-26 -91 -44 -172.5t-28 -160.5l-39 -25l9 151q-88 9 -181.5 13t-191.5 4q-23 -154 -37 -297t-18 -274q13 -1 44 -2t48 -1q117 0 227 9.5t178 23.5q45 9 61.5 18t32.5 42l37 75l39 11l-61 -201q-12 -38 -19 -44.5t-26 -6.5q-8 0 -49 2q-223 10 -449 10q-174 0 -266.5 -3
t-175.5 -9l14 35l176 34q67 330 107.5 622.5t54.5 543.5l-182 32zM862 1673q35 0 61.5 -27t26.5 -61q0 -38 -25.5 -63t-62.5 -25q-36 0 -61 25.5t-25 60.5t26 62.5t60 27.5zM520 1673q34 0 61 -27t27 -61q0 -38 -25 -63t-63 -25q-36 0 -61 26t-25 62q0 33 27 60.5t59 27.5z
" />
    <glyph glyph-name="Egrave" unicode="&#xc8;" horiz-adv-x="1143" 
d="M172 1288q105 -8 200 -12t185 -4q194 0 399 13q45 3 56 3q22 0 30.5 -5t8.5 -19q0 -12 -2.5 -25.5t-6.5 -26.5l-38 -153l-37 -6l6 53q1 11 2.5 23l1.5 12q0 32 -83 47t-370 26q-25 -117 -48.5 -246.5t-43.5 -267.5h78h59q82 0 137.5 2t108.5 7l39 96l43 20
q-26 -91 -44 -172.5t-28 -160.5l-39 -25l9 151q-88 9 -181.5 13t-191.5 4q-23 -154 -37 -297t-18 -274q13 -1 44 -2t48 -1q117 0 227 9.5t178 23.5q45 9 61.5 18t32.5 42l37 75l39 11l-61 -201q-12 -38 -19 -44.5t-26 -6.5q-8 0 -49 2q-223 10 -449 10q-174 0 -266.5 -3
t-175.5 -9l14 35l176 34q67 330 107.5 622.5t54.5 543.5l-182 32zM610 1716l199 -282h-54l-225 223l-18 18q-43 41 -43 66q0 22 14.5 35.5t38.5 13.5q34 0 82 -66z" />
    <glyph glyph-name="Iacute" unicode="&#xcd;" horiz-adv-x="705" 
d="M-12 -10l14 35l176 32q68 332 108.5 625.5t53.5 540.5l-182 32l14 35q91 -8 158 -12t116 -4q54 0 203 11q45 4 67 5l-14 -35l-176 -32q-69 -332 -109.5 -625.5t-51.5 -540.5l184 -32l-17 -35q-73 5 -141 7.5t-129 2.5q-90 0 -151.5 -2.5t-122.5 -7.5zM658 1657l-273 -223
h-55l262 301q30 34 46 44.5t32 10.5q21 0 35 -14.5t14 -36.5q0 -30 -60 -81z" />
    <glyph glyph-name="Icircumflex" unicode="&#xce;" horiz-adv-x="705" 
d="M-12 -10l14 35l176 32q68 332 108.5 625.5t53.5 540.5l-182 32l14 35q91 -8 158 -12t116 -4q54 0 203 11q45 4 67 5l-14 -35l-176 -32q-69 -332 -109.5 -625.5t-51.5 -540.5l184 -32l-17 -35q-73 5 -141 7.5t-129 2.5q-90 0 -151.5 -2.5t-122.5 -7.5zM463 1784h107
l155 -350h-45l-174 243l-270 -243h-53z" />
    <glyph glyph-name="Idieresis" unicode="&#xcf;" horiz-adv-x="705" 
d="M-12 -10l14 35l176 32q68 332 108.5 625.5t53.5 540.5l-182 32l14 35q91 -8 158 -12t116 -4q54 0 203 11q45 4 67 5l-14 -35l-176 -32q-69 -332 -109.5 -625.5t-51.5 -540.5l184 -32l-17 -35q-73 5 -141 7.5t-129 2.5q-90 0 -151.5 -2.5t-122.5 -7.5zM654 1673
q35 0 61.5 -27t26.5 -61q0 -38 -25.5 -63t-62.5 -25q-36 0 -61 25.5t-25 60.5t26 62.5t60 27.5zM312 1673q34 0 61 -27t27 -61q0 -38 -25 -63t-63 -25q-36 0 -61 26t-25 62q0 33 27 60.5t59 27.5z" />
    <glyph glyph-name="Igrave" unicode="&#xcc;" horiz-adv-x="705" 
d="M-12 -10l14 35l176 32q68 332 108.5 625.5t53.5 540.5l-182 32l14 35q91 -8 158 -12t116 -4q54 0 203 11q45 4 67 5l-14 -35l-176 -32q-69 -332 -109.5 -625.5t-51.5 -540.5l184 -32l-17 -35q-73 5 -141 7.5t-129 2.5q-90 0 -151.5 -2.5t-122.5 -7.5zM402 1716l199 -282
h-54l-225 223l-18 18q-43 41 -43 66q0 22 14.5 35.5t38.5 13.5q34 0 82 -66z" />
    <glyph glyph-name="Oacute" unicode="&#xd3;" horiz-adv-x="1274" 
d="M694 1227q-205 0 -327.5 -200.5t-122.5 -541.5q0 -212 81.5 -320t241.5 -108q203 0 326 192.5t123 508.5q0 238 -79.5 353.5t-242.5 115.5zM788 1305q197 0 298.5 -117.5t101.5 -345.5q0 -178 -58.5 -339t-166.5 -282q-107 -119 -236.5 -182.5t-265.5 -63.5
q-187 0 -286 120.5t-99 346.5q0 161 47.5 307.5t136.5 262.5q102 133 247 213t281 80zM1018 1657l-273 -223h-55l262 301q30 34 46 44.5t32 10.5q21 0 35 -14.5t14 -36.5q0 -30 -60 -81z" />
    <glyph glyph-name="Ocircumflex" unicode="&#xd4;" horiz-adv-x="1274" 
d="M694 1227q-205 0 -327.5 -200.5t-122.5 -541.5q0 -212 81.5 -320t241.5 -108q203 0 326 192.5t123 508.5q0 238 -79.5 353.5t-242.5 115.5zM788 1305q197 0 298.5 -117.5t101.5 -345.5q0 -178 -58.5 -339t-166.5 -282q-107 -119 -236.5 -182.5t-265.5 -63.5
q-187 0 -286 120.5t-99 346.5q0 161 47.5 307.5t136.5 262.5q102 133 247 213t281 80zM823 1784h107l155 -350h-45l-174 243l-270 -243h-53z" />
    <glyph glyph-name="apple" unicode="&#xf000;" horiz-adv-x="1618" 
d="M836 1216q-1 6 -1.5 14t-0.5 23q0 124 95 229.5t236 131.5q1 -10 1.5 -23t0.5 -39q0 -131 -103.5 -234.5t-203.5 -103.5h-8q-3 0 -7.5 1t-8.5 1zM1505 403q-114 -247 -205 -342.5t-204 -95.5q-50 0 -131.5 33t-122.5 33q-45 0 -131 -33t-127 -33q-64 0 -128.5 44
t-129.5 132q-102 140 -157.5 295.5t-55.5 300.5q0 219 125 356.5t323 137.5q68 0 155 -34t124 -34q34 0 121.5 35t152.5 35q110 0 198 -40t161 -124q-102 -65 -151.5 -145.5t-49.5 -182.5q0 -113 60 -200t173 -138z" />
    <glyph glyph-name="Ograve" unicode="&#xd2;" horiz-adv-x="1274" 
d="M694 1227q-205 0 -327.5 -200.5t-122.5 -541.5q0 -212 81.5 -320t241.5 -108q203 0 326 192.5t123 508.5q0 238 -79.5 353.5t-242.5 115.5zM788 1305q197 0 298.5 -117.5t101.5 -345.5q0 -178 -58.5 -339t-166.5 -282q-107 -119 -236.5 -182.5t-265.5 -63.5
q-187 0 -286 120.5t-99 346.5q0 161 47.5 307.5t136.5 262.5q102 133 247 213t281 80zM762 1716l199 -282h-54l-225 223l-18 18q-43 41 -43 66q0 22 14.5 35.5t38.5 13.5q34 0 82 -66z" />
    <glyph glyph-name="Uacute" unicode="&#xda;" horiz-adv-x="1384" 
d="M121 1255l16 35q78 -7 146 -10.5t127 -3.5q38 0 91 2.5t179 11.5l-14 -35l-170 -32q-65 -257 -100.5 -489.5t-35.5 -385.5q0 -156 71.5 -229.5t223.5 -73.5q126 0 213.5 47.5t135.5 143.5q38 78 64 292.5t26 485.5q0 83 -2 126.5t-7 82.5l-190 32l17 35
q76 -7 140.5 -10.5t112.5 -3.5q40 0 96 3t162 11l-14 -35l-170 -32q-47 -206 -86 -490.5t-55 -355.5q-50 -217 -162 -309.5t-320 -92.5q-202 0 -301.5 87t-99.5 264q0 75 43 369.5t43 512.5v15zM1014 1657l-273 -223h-55l262 301q30 34 46 44.5t32 10.5q21 0 35 -14.5
t14 -36.5q0 -30 -60 -81z" />
    <glyph glyph-name="Ucircumflex" unicode="&#xdb;" horiz-adv-x="1384" 
d="M121 1255l16 35q78 -7 146 -10.5t127 -3.5q38 0 91 2.5t179 11.5l-14 -35l-170 -32q-65 -257 -100.5 -489.5t-35.5 -385.5q0 -156 71.5 -229.5t223.5 -73.5q126 0 213.5 47.5t135.5 143.5q38 78 64 292.5t26 485.5q0 83 -2 126.5t-7 82.5l-190 32l17 35
q76 -7 140.5 -10.5t112.5 -3.5q40 0 96 3t162 11l-14 -35l-170 -32q-47 -206 -86 -490.5t-55 -355.5q-50 -217 -162 -309.5t-320 -92.5q-202 0 -301.5 87t-99.5 264q0 75 43 369.5t43 512.5v15zM819 1784h107l155 -350h-45l-174 243l-270 -243h-53z" />
    <glyph glyph-name="Ugrave" unicode="&#xd9;" horiz-adv-x="1384" 
d="M121 1255l16 35q78 -7 146 -10.5t127 -3.5q38 0 91 2.5t179 11.5l-14 -35l-170 -32q-65 -257 -100.5 -489.5t-35.5 -385.5q0 -156 71.5 -229.5t223.5 -73.5q126 0 213.5 47.5t135.5 143.5q38 78 64 292.5t26 485.5q0 83 -2 126.5t-7 82.5l-190 32l17 35
q76 -7 140.5 -10.5t112.5 -3.5q40 0 96 3t162 11l-14 -35l-170 -32q-47 -206 -86 -490.5t-55 -355.5q-50 -217 -162 -309.5t-320 -92.5q-202 0 -301.5 87t-99.5 264q0 75 43 369.5t43 512.5v15zM758 1716l199 -282h-54l-225 223l-18 18q-43 41 -43 66q0 22 14.5 35.5
t38.5 13.5q34 0 82 -66z" />
    <glyph glyph-name="dotlessi" unicode="&#x131;" horiz-adv-x="508" 
d="M348 217l25 -16q-72 -102 -140.5 -164t-107.5 -62q-23 0 -34 17.5t-11 52.5q0 34 11.5 111t33.5 194q31 165 45 254.5t14 120.5q0 28 -4.5 37.5t-15.5 9.5q-13 0 -35.5 -17t-56.5 -53l-23 21q93 101 154 149t96 48q22 0 33.5 -16.5t11.5 -47.5q0 -74 -52 -309t-52 -361
q0 -19 7 -30t19 -11q14 0 35 19t47 53z" />
    <glyph glyph-name="circumflex" unicode="&#x2c6;" 
d="M524 1399h107l155 -350h-45l-174 243l-270 -243h-53z" />
    <glyph glyph-name="tilde" unicode="&#x2dc;" 
d="M795 1317h41q-24 -92 -65 -136t-103 -44q-16 0 -31.5 2t-30.5 6l-133 33h-2q-52 14 -72 14q-38 0 -62.5 -20t-35.5 -60h-39q19 90 58.5 132t105.5 42q14 0 34 -3t44 -9l137 -35q4 -1 11 -2q29 -6 40 -6q40 0 65 21t38 65z" />
    <glyph glyph-name="macron" unicode="&#xaf;" 
d="M301 1249h512l-22 -98h-512z" />
    <glyph glyph-name="breve" unicode="&#x2d8;" 
d="M295 1355l45 1q11 -83 52.5 -120.5t123.5 -37.5q88 0 161 39t136 119h49q-78 -137 -165.5 -201.5t-192.5 -64.5t-155.5 64.5t-53.5 200.5z" />
    <glyph glyph-name="dotaccent" unicode="&#x2d9;" 
d="M545 1292q36 0 65 -28t29 -64q0 -39 -27 -65.5t-67 -26.5q-37 0 -63.5 27t-26.5 65q0 35 28 63.5t62 28.5z" />
    <glyph glyph-name="ring" unicode="&#x2da;" 
d="M559 1421q-66 0 -113 -46t-47 -111q0 -67 46.5 -112.5t113.5 -45.5q66 0 112 46t46 112t-46 111.5t-112 45.5zM559 1497q97 0 165.5 -68.5t68.5 -164.5q0 -97 -68.5 -165.5t-165.5 -68.5q-98 0 -165.5 67.5t-67.5 166.5q0 98 67.5 165.5t165.5 67.5z" />
    <glyph glyph-name="cedilla" unicode="&#xb8;" 
d="M238 0h55l-37 -121q9 1 23 2q30 2 40 2q77 0 122.5 -43.5t45.5 -115.5q0 -73 -58 -118.5t-153 -45.5q-68 0 -139 21.5t-129 60.5l23 53q61 -33 121 -51.5t100 -18.5q63 0 95 25t32 76q0 43 -31 67.5t-86 24.5q-20 0 -41.5 -2t-44.5 -6z" />
    <glyph glyph-name="hungarumlaut" unicode="&#x2dd;" 
d="M825 1278l-188 -229h-49l162 290q21 37 37 52.5t32 15.5q21 0 34 -14.5t13 -36.5q0 -15 -10 -34t-31 -44zM582 1278l-166 -229h-47l133 284q20 42 35.5 58t33.5 16q19 0 34.5 -14.5t15.5 -32.5q0 -15 -8.5 -33t-30.5 -49z" />
    <glyph glyph-name="ogonek" unicode="&#x2db;" 
d="M268 31h43q-96 -74 -141 -141t-45 -136q0 -53 30.5 -86t77.5 -33q34 0 61.5 18t61.5 62l25 -16q-32 -66 -85 -102.5t-118 -36.5q-67 0 -110 42.5t-43 108.5q0 81 63 164t180 156z" />
    <glyph glyph-name="caron" unicode="&#x2c7;" 
d="M305 1399h45l174 -244l271 244h53l-281 -350h-106z" />
    <glyph glyph-name="Lslash" unicode="&#x141;" horiz-adv-x="1100" 
d="M172 1290q26 -2 72 -5q148 -11 200 -11q53 0 201 11q46 3 71 5l-14 -35l-176 -32q-25 -113 -47 -237t-41 -263l287 180l35 -53l-336 -211q-22 -163 -35.5 -307t-17.5 -273h100q258 0 367 20.5t131 70.5l43 96l39 10l-64 -217q-10 -35 -17.5 -43t-27.5 -8q-7 0 -42 1
q-227 11 -466 11q-181 0 -274 -3t-172 -9l14 35l176 34q28 133 51 258t43 252l-213 -133l-34 55l258 160q23 170 37 311t20 263l-182 32z" />
    <glyph glyph-name="lslash" unicode="&#x142;" horiz-adv-x="487" 
d="M748 1450q-60 24 -94.5 32.5t-65.5 8.5q-93 0 -153.5 -145.5t-160.5 -720.5l172 110l33 -51l-217 -141q-19 -128 -29 -216t-10 -130q0 -24 5.5 -34.5t19.5 -10.5q10 0 30 14.5t48 42.5l22 -21q-100 -112 -156 -158t-90 -46q-21 0 -32 18t-11 55t11.5 127t40.5 283
l-168 -109l-33 52l213 137q76 495 228 777t339 282q40 0 61 -20t21 -58q0 -20 -6 -38.5t-18 -39.5z" />
    <glyph glyph-name="Scaron" unicode="&#x160;" horiz-adv-x="930" 
d="M774 1057l-8 2v4q0 81 -49.5 125.5t-138.5 44.5q-99 0 -164.5 -64t-65.5 -159q0 -68 37.5 -124.5t149.5 -142.5q145 -110 190 -182t45 -164q0 -168 -146.5 -294t-347.5 -126q-121 0 -195.5 36.5t-74.5 92.5q0 45 107 140l14 12h8q9 -94 71 -148.5t161 -54.5
q116 0 190 73.5t74 188.5q0 73 -38.5 132.5t-172.5 164.5q-132 104 -170.5 165.5t-38.5 135.5q0 160 135 275t324 115q99 0 163 -29.5t64 -73.5q0 -19 -25 -49.5t-98 -95.5zM356 1784h45l174 -244l271 244h53l-281 -350h-106z" />
    <glyph glyph-name="scaron" unicode="&#x161;" horiz-adv-x="569" 
d="M440 764q-26 38 -55.5 57t-62.5 19q-48 0 -82.5 -38.5t-34.5 -92.5q0 -66 96 -188l11 -14q60 -77 80 -123.5t20 -94.5q0 -115 -103.5 -207t-228.5 -92q-68 0 -108 16t-40 43q0 21 23.5 47t60.5 45q32 -43 67 -63.5t77 -20.5q60 0 100.5 39.5t40.5 98.5q0 36 -19.5 78
t-62.5 96l-22 27q-105 132 -105 227q0 114 100.5 201t227.5 87q52 0 85.5 -17t33.5 -42q0 -24 -28 -49.5t-71 -38.5zM78 1399h45l174 -244l271 244h53l-281 -350h-106z" />
    <glyph glyph-name="Zcaron" unicode="&#x17d;" horiz-adv-x="1028" 
d="M1049 1296v-47l-515 -678t-349 -507q81 2 220 6q424 11 459 84l37 77l39 11l-61 -203q-2 -5 -5 -15q-13 -42 -38 -42q-15 0 -77 3q-234 15 -435 15q-129 0 -206 -4.5t-138 -13.5v55q100 111 334 426l542 754q-383 0 -500.5 -20t-146.5 -75l-37 -78l-39 -8l62 203
q1 5 4 15q13 42 39 42q6 0 40 -3q196 -17 400 -17q116 0 208 5t163 15zM405 1784h45l174 -244l271 244h53l-281 -350h-106z" />
    <glyph glyph-name="zcaron" unicode="&#x17e;" horiz-adv-x="735" 
d="M690 903l25 -14l-318 -386.5t-327 -359.5q28 11 55 16t55 5q45 0 133.5 -20.5t130.5 -20.5q60 0 100.5 29.5t84.5 107.5l30 -12q-75 -162 -125.5 -211t-125.5 -49q-55 0 -163.5 29.5t-158.5 29.5q-42 0 -81 -14.5t-77 -44.5l-16 16q157 210 320.5 401.5t334.5 366.5
q-33 -11 -60.5 -15.5t-51.5 -4.5q-43 0 -118.5 16t-109.5 16q-48 0 -87.5 -30.5t-86.5 -106.5l-26 12q66 140 122.5 197t124.5 57q48 0 150 -23.5t151 -23.5q31 0 60 9.5t55 27.5zM162 1399h45l174 -244l271 244h53l-281 -350h-106z" />
    <glyph glyph-name="brokenbar" unicode="&#xa6;" 
d="M459 408h108v-758h-108v758zM459 1432h108v-758h-108v758z" />
    <glyph glyph-name="Eth" unicode="&#xd0;" horiz-adv-x="1417" 
d="M-12 -10l14 33l176 34q29 138 54.5 285.5t48.5 302.5h-275l19 72h264q19 126 32 252t19 254l-182 32l14 35q89 -7 159.5 -10.5t119.5 -3.5q69 0 213.5 11t220.5 11q227 0 341.5 -118t114.5 -353q0 -184 -65.5 -346.5t-188.5 -281.5q-108 -108 -249 -158.5t-330 -50.5
q-49 0 -141.5 5t-137.5 5q-33 0 -88.5 -2.5t-152.5 -7.5zM365 74q70 -12 128.5 -17.5t108.5 -5.5q284 0 428 181t144 540q0 229 -99.5 348t-288.5 119q-45 0 -108 -7t-152 -22q-26 -109 -49.5 -231.5t-44.5 -261.5h275l-19 -72h-264q-24 -163 -39 -305t-20 -266z" />
    <glyph glyph-name="eth" unicode="&#xf0;" horiz-adv-x="809" 
d="M426 825q-128 0 -196 -139.5t-68 -400.5q0 -95 35.5 -145t103.5 -50q116 0 187 156t71 411q0 87 -32.5 127.5t-100.5 40.5zM520 1356l156 90l14 8q58 34 84 53l35 -59q-24 -10 -49.5 -23l-57.5 -30l-151 -86q82 -122 124 -260t42 -283q0 -147 -41 -293t-107 -237
q-79 -109 -194.5 -184t-202.5 -75q-83 0 -120.5 54.5t-37.5 175.5q0 162 46.5 299.5t129.5 222.5q89 90 162.5 137t126.5 47q29 0 50.5 -6.5t41.5 -21.5q-11 108 -39 203t-69 169l-152 -86q-26 -14 -95 -61l-3 -2l-35 59q35 16 87 45l20 11l149 84q-56 100 -141 176.5
t-199 128.5q10 11 18.5 16.5t16.5 5.5q56 0 175 -79.5t216 -198.5z" />
    <glyph glyph-name="Yacute" unicode="&#xdd;" horiz-adv-x="1128" 
d="M49 1292q100 -8 150 -11t86 -3q48 0 109.5 3.5t133.5 10.5l-14 -32l-141 -33q44 -152 209 -550l18 -44l38 55q258 368 339 539l-123 33l16 32q86 -8 127.5 -11t71.5 -3q44 0 94.5 3.5t105.5 10.5l-14 -32l-139 -33q-143 -162 -264.5 -321t-216.5 -308
q-22 -145 -35.5 -279.5t-19.5 -263.5l178 -32l-13 -33q-62 5 -124 7.5t-148 2.5q-89 0 -150 -2.5t-122 -7.5l14 33l182 32q24 112 42.5 239.5t31.5 280.5q-49 134 -113 283t-168 369l-153 33zM871 1657l-273 -223h-55l262 301q30 34 46 44.5t32 10.5q21 0 35 -14.5t14 -36.5
q0 -30 -60 -81z" />
    <glyph glyph-name="yacute" unicode="&#xfd;" horiz-adv-x="967" 
d="M864 928q-60 -235 -104 -559t-54 -376q-40 -226 -106.5 -354.5t-187.5 -230.5q-82 -70 -182.5 -108.5t-198.5 -38.5q-72 0 -111 25t-39 71q0 17 8 37t23 41q59 -35 123 -51.5t141 -16.5q190 0 283.5 188.5t183.5 915.5q-141 -211 -291.5 -348t-226.5 -137
q-26 0 -39.5 16.5t-13.5 48.5q0 81 51 321t51 365q0 15 -4.5 22t-13.5 7q-12 0 -35 -16.5t-60 -51.5l-18 19q85 97 145 146.5t93 49.5q26 0 39.5 -19t13.5 -56q0 -50 -46 -296l-14 -74q-29 -159 -39 -223.5t-10 -92.5q0 -23 7.5 -34.5t21.5 -11.5q29 0 110.5 82.5
t165.5 202.5q77 108 119.5 214.5t63.5 238.5l36 21q75 46 115 63zM690 1272l-273 -223h-55l262 301q30 34 46 44.5t32 10.5q21 0 35 -14.5t14 -36.5q0 -30 -60 -81z" />
    <glyph glyph-name="Thorn" unicode="&#xde;" horiz-adv-x="1090" 
d="M475 954q-23 -126 -43.5 -267t-38.5 -300q46 -14 82 -20.5t66 -6.5q143 0 228 109.5t85 292.5q0 108 -51 161.5t-154 53.5q-48 0 -91 -5.5t-83 -17.5zM719 1292l-14 -35l-177 -32q-11 -44 -32 -155q-7 -37 -11 -56q110 14 160.5 18t89.5 4q137 0 209 -69.5t72 -202.5
q0 -199 -144.5 -328t-365.5 -129q-29 0 -59.5 2t-61.5 6l-3 -32q-14 -157 -15 -226l182 -32l-14 -33q-80 4 -150.5 6t-122.5 2q-56 0 -125 -2t-147 -6l14 33l176 32q67 331 108 625.5t54 542.5l-182 32l14 35q92 -8 157.5 -12t114.5 -4q45 0 109.5 4t163.5 12z" />
    <glyph glyph-name="thorn" unicode="&#xfe;" horiz-adv-x="973" 
d="M209 76q29 -8 54.5 -11.5t51.5 -3.5q178 0 284 165t106 440q0 63 -13.5 91.5t-42.5 28.5q-27 0 -77.5 -42t-112.5 -117q-98 -119 -158.5 -252t-91.5 -299zM772 1450q-60 24 -94 32.5t-66 8.5q-165 0 -329 -957l-19 -110q134 213 282 351t228 138q46 0 71 -48t25 -136
q0 -185 -85.5 -352t-239.5 -281q-79 -58 -163 -88.5t-169 -30.5h-23q-39 -315 -230.5 -515.5t-440.5 -200.5q-71 0 -110.5 25t-39.5 69q0 18 8 36.5t25 41.5q57 -33 122.5 -49.5t137.5 -16.5q119 0 197 67t127 210q61 179 117.5 578.5t93.5 576.5q79 378 218 592.5
t300 214.5q40 0 61 -20t21 -58q0 -20 -6 -38.5t-19 -39.5z" />
    <glyph glyph-name="minus" unicode="&#x2212;" horiz-adv-x="1706" 
d="M254 659h1198v-98h-1198v98z" />
    <glyph glyph-name="multiply" unicode="&#xd7;" horiz-adv-x="1706" 
d="M375 1161l481 -481l481 481l70 -67l-481 -484l481 -481l-70 -68l-481 482l-481 -482l-70 68l481 481l-481 484z" />
    <glyph glyph-name="onesuperior" unicode="&#xb9;" horiz-adv-x="475" 
d="M348 1294l17 -6q-35 -137 -63.5 -323.5t-49.5 -413.5l168 -19v-26q-51 1 -128 3.5t-104 2.5q-35 0 -91.5 -1.5t-130.5 -4.5l3 26l168 19q35 147 61 313.5t43 345.5q-45 -13 -85 -22.5t-78 -16.5l4 25q73 17 139.5 41.5t126.5 56.5z" />
    <glyph glyph-name="twosuperior" unicode="&#xb2;" horiz-adv-x="647" 
d="M90 590h6q92 4 135 4q36 0 91 -1t75 -1q72 0 98 20t44 84h28q-8 -26 -22 -68q-36 -116 -94 -116q-28 0 -122 4t-161 4q-34 0 -73.5 -1.5t-116.5 -6.5l-5 20q258 192 376 326.5t118 237.5q0 64 -41 104.5t-104 40.5q-60 0 -100 -33.5t-40 -83.5q0 -25 5.5 -44.5
t17.5 -35.5q-9 -4 -16.5 -6t-16.5 -2q-25 0 -42 17t-17 43q0 68 89.5 133t184.5 65q90 0 141.5 -45t51.5 -123q0 -149 -441 -497z" />
    <glyph glyph-name="threesuperior" unicode="&#xb3;" horiz-adv-x="639" 
d="M306 932q103 -3 160.5 -49t57.5 -127q0 -109 -103 -182.5t-259 -73.5q-87 0 -139 25t-52 67q0 23 17.5 42t46.5 27q3 -61 45.5 -95t118.5 -34q92 0 150.5 56t58.5 143t-54 131.5t-159 44.5l12 25q109 13 172 68.5t63 136.5q0 53 -36.5 88t-92.5 35t-94.5 -32.5
t-38.5 -80.5q0 -7 1.5 -16t6.5 -27q-7 -3 -13 -4.5t-11 -1.5q-22 0 -38.5 16.5t-16.5 40.5q0 56 70.5 95.5t174.5 39.5q95 0 148 -36t53 -101q0 -68 -66.5 -127t-182.5 -94z" />
    <glyph glyph-name="onequarter" unicode="&#xbc;" horiz-adv-x="1440" 
d="M1225 674q-80 -107 -171.5 -205t-185.5 -176q38 8 96 12t136 4h63l33.5 206.5t28.5 158.5zM1307 731l16 -4q-19 -55 -39.5 -165t-37.5 -257q7 -1 15 -1.5t23 -0.5q45 0 66.5 9t27.5 30h20q-4 -15 -10 -40q-17 -60 -63 -60h-12q-42 2 -78 1q-7 -46 -12 -99t-9 -120
q-20 -7 -51 -21l-38 -17l-19 8q11 37 21.5 87.5t29.5 165.5q-31 2 -67.5 3.5t-40.5 1.5q-78 0 -139 -4t-97 -10l-16 36q122 105 223.5 212t175.5 208l61.5 20.5t49.5 16.5zM1030 1343l92 -59l-459 -664.5l-440 -672.5l-88 65l461 661.5zM332 1294l14 -8q-33 -132 -59 -306.5
t-45 -381.5l159 -16l-2 -25q-46 1 -119 3.5t-100 2.5q-34 0 -88 -1.5t-124 -4.5l3 25l160 16q32 135 57.5 290t42.5 326q-41 -12 -79.5 -20.5t-75.5 -13.5l2 20q72 17 135 40.5t119 53.5z" />
    <glyph glyph-name="onehalf" unicode="&#xbd;" horiz-adv-x="1415" 
d="M883 72q13 0 60.5 3t74.5 3q33 0 85.5 -2t72.5 -2q67 0 92 18.5t43 79.5h26l-18 -58q-35 -114 -92 -114q-27 0 -117 4t-154 4q-57 0 -174 -8h-6l-6 20q243 175 357 302t114 223q0 60 -39 98.5t-98 38.5q-57 0 -95 -32t-38 -79q0 -22 5 -40.5t15 -34.5q-9 -4 -15 -5
t-13 -2q-26 0 -43 16t-17 40q0 63 86.5 124.5t177.5 61.5q85 0 134 -42.5t49 -115.5q0 -140 -424 -467zM1030 1343l92 -59l-459 -664.5l-440 -672.5l-88 65l461 661.5zM332 1294l14 -8q-33 -132 -59 -306.5t-45 -381.5l159 -16l-2 -25q-46 1 -119 3.5t-100 2.5
q-34 0 -88 -1.5t-124 -4.5l3 25l160 16q32 135 57.5 290t42.5 326q-41 -12 -79.5 -20.5t-75.5 -13.5l2 20q72 17 135 40.5t119 53.5z" />
    <glyph glyph-name="threequarters" unicode="&#xbe;" horiz-adv-x="1593" 
d="M1378 674q-80 -107 -171.5 -205t-184.5 -176q37 8 95.5 12t135.5 4h64l33.5 206.5zM1460 731l17 -4q-19 -55 -39.5 -165t-38.5 -256q8 -2 16 -2.5t23 -0.5q44 0 66 9t28 30h20l-11 -40q-16 -60 -62 -60h-12q-42 2 -78 2q-7 -46 -12 -99.5t-9 -119.5q-21 -8 -51.5 -22
t-39.5 -17l-17 8q11 38 21 87.5t29 166.5q-31 1 -67.5 2.5t-40.5 1.5q-77 0 -138.5 -4t-96.5 -10l-17 36q122 105 224 212t176 208l61.5 20.5zM1184 1343l92 -59l-459 -664.5l-440 -672.5l-88 65l460.5 661.5zM291 956q101 -4 155 -46.5t54 -118.5q0 -103 -98 -171.5
t-246 -68.5q-84 0 -133.5 23.5t-49.5 62.5q0 22 15.5 39t44.5 26q3 -57 44.5 -88.5t112.5 -31.5q88 0 143.5 51.5t55.5 134.5q0 80 -51.5 122t-151.5 42l11 22q104 12 165.5 64.5t61.5 128.5q0 48 -36 80.5t-89 32.5q-55 0 -91 -30t-36 -75q0 -9 6 -32q1 -5 2 -9q-1 0 -6 -1
q-14 -3 -18 -3q-21 0 -36.5 15.5t-15.5 37.5q0 53 67.5 90t166.5 37q91 0 141.5 -34t50.5 -95q0 -63 -63.5 -117.5t-175.5 -87.5z" />
    <glyph glyph-name="franc" unicode="&#x20a3;" horiz-adv-x="1772" 
d="M173 1290q79 -9 158.5 -13.5t160.5 -4.5q259 0 504 11q35 1 42 1q27 0 34 -4t7 -16q0 -9 -2.5 -22t-7.5 -30l-39 -153l-37 -6l8 52q2 12 3.5 24l1.5 12q0 34 -100.5 49t-379.5 18q-25 -106 -49 -234t-45 -274h53h84h95q44 0 88.5 2.5t89.5 6.5l39 96l43 24
q-27 -90 -44.5 -172t-27.5 -161l-39 -27l8 143q-76 12 -174 17.5t-227 5.5q-22 -159 -35.5 -302.5t-19.5 -275.5l200 -34l-16 -33q-76 5 -148 7.5t-141 2.5q-87 0 -148.5 -2.5t-123.5 -7.5l14 33l176 34q68 332 108.5 625.5t53.5 540.5l-182 32zM1691 694q-13 28 -29 41
t-36 13q-78 0 -183 -205.5t-151 -495.5l-48 -25q-70 -36 -101 -49q58 296 85 478.5t27 275.5q0 18 -7 28.5t-19 10.5q-14 0 -41.5 -20.5t-59.5 -55.5l-18 21q95 102 157 153t93 51q26 0 38.5 -23t12.5 -73q0 -41 -33 -274l-8 -60q103 193 204 311.5t158 118.5
q29 0 47.5 -21.5t18.5 -55.5q0 -31 -24.5 -64.5t-82.5 -79.5z" />
    <glyph glyph-name="Gbreve" unicode="&#x11e;" horiz-adv-x="1266" 
d="M1012 1032l-8 4q-8 92 -76.5 142.5t-184.5 50.5q-236 0 -373 -194.5t-137 -534.5q0 -202 98.5 -316t272.5 -114q60 0 126 14.5t140 44.5q12 92 21.5 183.5t15.5 181.5l-157 30l14 33q102 -9 147.5 -11.5t79.5 -2.5q48 0 108 3.5t127 10.5l-14 -33l-137 -30
q-17 -81 -26 -162t-11 -166q-174 -99 -304 -145t-234 -46q-199 0 -316.5 128.5t-117.5 349.5q0 181 73 354t201 293q108 101 238.5 153t275.5 52q124 0 202.5 -37t78.5 -92q0 -44 -106 -130zM514 1740l45 1q11 -83 52.5 -120.5t123.5 -37.5q88 0 161 39t136 119h49
q-78 -137 -165.5 -201.5t-192.5 -64.5t-155.5 64.5t-53.5 200.5z" />
    <glyph glyph-name="gbreve" unicode="&#x11f;" horiz-adv-x="920" 
d="M666 813h-33h-96q-94 0 -148 -25.5t-94 -87.5q-50 -77 -87.5 -230.5t-37.5 -299.5q0 -30 9.5 -47t25.5 -17q28 0 85 49.5t124 133.5q98 123 160.5 253t91.5 271zM825 915q-59 -163 -115 -578q-31 -229 -53 -351q-40 -224 -106 -350.5t-186 -227.5q-82 -70 -182.5 -108.5
t-198.5 -38.5q-72 0 -111 25t-39 71q0 19 8 38.5t22 38.5q53 -32 121 -49.5t142 -17.5q192 0 287 192.5t184 911.5q-139 -212 -289.5 -350.5t-226.5 -138.5q-31 0 -44 31.5t-13 105.5q0 360 184 577t483 217h45q18 0 40.5 0.5t47.5 1.5zM244 1355l45 1q11 -83 52.5 -120.5
t123.5 -37.5q88 0 161 39t136 119h49q-78 -137 -165.5 -201.5t-192.5 -64.5t-155.5 64.5t-53.5 200.5z" />
    <glyph glyph-name="Idotaccent" unicode="&#x130;" horiz-adv-x="705" 
d="M-12 -10l14 35l176 32q68 332 108.5 625.5t53.5 540.5l-182 32l14 35q91 -8 158 -12t116 -4q54 0 203 11q45 4 67 5l-14 -35l-176 -32q-69 -332 -109.5 -625.5t-51.5 -540.5l184 -32l-17 -35q-73 5 -141 7.5t-129 2.5q-90 0 -151.5 -2.5t-122.5 -7.5zM484 1677
q36 0 65 -28t29 -64q0 -39 -27 -65.5t-67 -26.5q-37 0 -63.5 27t-26.5 65q0 35 28 63.5t62 28.5z" />
    <glyph glyph-name="Scedilla" unicode="&#x15e;" horiz-adv-x="930" 
d="M774 1057l-8 2v4q0 81 -49.5 125.5t-138.5 44.5q-99 0 -164.5 -64t-65.5 -159q0 -68 37.5 -124.5t149.5 -142.5q145 -110 190 -182t45 -164q0 -168 -146.5 -294t-347.5 -126q-121 0 -195.5 36.5t-74.5 92.5q0 45 107 140l14 12h8q9 -94 71 -148.5t161 -54.5
q116 0 190 73.5t74 188.5q0 73 -38.5 132.5t-172.5 164.5q-132 104 -170.5 165.5t-38.5 135.5q0 160 135 275t324 115q99 0 163 -29.5t64 -73.5q0 -19 -25 -49.5t-98 -95.5zM363 0h55l-37 -121q9 1 23 2q30 2 40 2q77 0 122.5 -43.5t45.5 -115.5q0 -73 -58 -118.5
t-153 -45.5q-68 0 -139 21.5t-129 60.5l23 53q61 -33 121 -51.5t100 -18.5q63 0 95 25t32 76q0 43 -31 67.5t-86 24.5q-20 0 -41.5 -2t-44.5 -6z" />
    <glyph glyph-name="scedilla" unicode="&#x15f;" horiz-adv-x="569" 
d="M440 764q-26 38 -55.5 57t-62.5 19q-48 0 -82.5 -38.5t-34.5 -92.5q0 -66 96 -188l11 -14q60 -77 80 -123.5t20 -94.5q0 -115 -103.5 -207t-228.5 -92q-68 0 -108 16t-40 43q0 21 23.5 47t60.5 45q32 -43 67 -63.5t77 -20.5q60 0 100.5 39.5t40.5 98.5q0 36 -19.5 78
t-62.5 96l-22 27q-105 132 -105 227q0 114 100.5 201t227.5 87q52 0 85.5 -17t33.5 -42q0 -24 -28 -49.5t-71 -38.5zM11 0h55l-37 -121q9 1 23 2q30 2 40 2q77 0 122.5 -43.5t45.5 -115.5q0 -73 -58 -118.5t-153 -45.5q-68 0 -139 21.5t-129 60.5l23 53q61 -33 121 -51.5
t100 -18.5q63 0 95 25t32 76q0 43 -31 67.5t-86 24.5q-20 0 -41.5 -2t-44.5 -6z" />
    <glyph glyph-name="Cacute" unicode="&#x106;" horiz-adv-x="1085" 
d="M975 1030l-6 2q-10 93 -75.5 144t-174.5 51q-218 0 -346.5 -194t-128.5 -527q0 -202 98.5 -319t269.5 -117q84 0 167.5 25.5t174.5 80.5l-6 -59q-107 -70 -225 -106t-242 -36q-194 0 -299.5 121t-105.5 344q0 177 59 338t168 281q108 118 244 182t280 64q119 0 195 -37
t76 -92q0 -43 -103 -129zM1041 1657l-273 -223h-55l262 301q30 34 46 44.5t32 10.5q21 0 35 -14.5t14 -36.5q0 -30 -60 -81z" />
    <glyph glyph-name="cacute" unicode="&#x107;" horiz-adv-x="635" 
d="M502 745q-35 32 -64.5 46t-60.5 14q-93 0 -155 -147t-62 -367q0 -99 28 -146t86 -47q50 0 108 35.5t124 106.5l20 -25q-97 -110 -201.5 -174t-183.5 -64q-69 0 -102 48.5t-33 148.5q0 140 42 285t104 227q74 95 182 166.5t172 71.5q43 0 75.5 -21.5t32.5 -46.5
q0 -22 -31.5 -54t-80.5 -57zM705 1272l-273 -223h-55l262 301q30 34 46 44.5t32 10.5q21 0 35 -14.5t14 -36.5q0 -30 -60 -81z" />
    <glyph glyph-name="Ccaron" unicode="&#x10c;" horiz-adv-x="1085" 
d="M975 1030l-6 2q-10 93 -75.5 144t-174.5 51q-218 0 -346.5 -194t-128.5 -527q0 -202 98.5 -319t269.5 -117q84 0 167.5 25.5t174.5 80.5l-6 -59q-107 -70 -225 -106t-242 -36q-194 0 -299.5 121t-105.5 344q0 177 59 338t168 281q108 118 244 182t280 64q119 0 195 -37
t76 -92q0 -43 -103 -129zM627 1784h45l174 -244l271 244h53l-281 -350h-106z" />
    <glyph glyph-name="ccaron" unicode="&#x10d;" horiz-adv-x="635" 
d="M502 745q-35 32 -64.5 46t-60.5 14q-93 0 -155 -147t-62 -367q0 -99 28 -146t86 -47q50 0 108 35.5t124 106.5l20 -25q-97 -110 -201.5 -174t-183.5 -64q-69 0 -102 48.5t-33 148.5q0 140 42 285t104 227q74 95 182 166.5t172 71.5q43 0 75.5 -21.5t32.5 -46.5
q0 -22 -31.5 -54t-80.5 -57zM291 1399h45l174 -244l271 244h53l-281 -350h-106z" />
    <glyph glyph-name="dcroat" unicode="&#x111;" horiz-adv-x="944" 
d="M643 813h-29h-88q-87 0 -139.5 -26t-91.5 -87q-50 -77 -87.5 -230.5t-37.5 -299.5q0 -30 9.5 -47t25.5 -17q28 0 83.5 49t125.5 134q96 119 152.5 248t76.5 276zM1200 1450q-52 22 -89 31.5t-67 9.5q-68 0 -111.5 -61.5t-84.5 -223.5h258l-12 -61h-260
q-61 -327 -98.5 -600.5t-37.5 -358.5q0 -37 5 -49t18 -12q10 0 25.5 12.5t48.5 48.5l24 -20q-78 -87 -141.5 -135.5t-95.5 -48.5q-24 0 -33.5 17t-9.5 56q0 50 15.5 161.5t43.5 254.5q-139 -212 -289.5 -350.5t-226.5 -138.5q-31 0 -44 31.5t-13 105.5q0 347 171 560.5
t463 233.5q13 60 28.5 118t33.5 114h-287l12 61h299q80 188 186.5 294t213.5 106q39 0 59.5 -20t20.5 -58q0 -20 -6 -38.5t-19 -39.5z" />
    <glyph glyph-name="sfthyphen" unicode="&#xad;" horiz-adv-x="664" 
d="M545 553l14 -23q-76 -65 -128 -91.5t-99 -26.5q-25 0 -88.5 10t-100.5 10q-29 0 -57.5 -7.5t-62.5 -25.5l-17 23q79 67 130 94t97 27q27 0 87.5 -11.5t93.5 -11.5q37 0 68.5 8t62.5 25z" />
    <glyph glyph-name="periodcentered" unicode="&#x2219;" horiz-adv-x="508" 
d="M254 737q38 0 66 -28.5t28 -67.5q0 -38 -28 -67t-66 -29t-66 29t-28 67q0 39 28 67.5t66 28.5z" />
    <glyph glyph-name="euro" horiz-adv-x="1071" 
d="M1100 1176q0 -43 -103 -129l-20 -17l-6 2q-10 93 -70 141t-168 48q-118 0 -208.5 -111.5t-133.5 -308.5h457l-23 -62h-446q-6 -39 -10.5 -82t-7.5 -90h395l-23 -61h-377v-47q0 -189 58.5 -288t171.5 -99q89 0 181 26.5t177 77.5l-6 -59q-108 -70 -225.5 -106t-241.5 -36
q-136 0 -207 104.5t-71 305.5q0 31 1.5 61.5t3.5 59.5h-180l23 61h164q6 45 15 88t22 84h-193l23 62h190q34 94 83.5 176t111.5 145q85 88 183 134.5t196 46.5q118 0 191 -36t73 -91z" />
    <glyph glyph-name="euro" unicode="&#x20ac;" horiz-adv-x="1071" 
d="M1100 1176q0 -43 -103 -129l-20 -17l-6 2q-10 93 -70 141t-168 48q-118 0 -208.5 -111.5t-133.5 -308.5h457l-23 -62h-446q-6 -39 -10.5 -82t-7.5 -90h395l-23 -61h-377v-47q0 -189 58.5 -288t171.5 -99q89 0 181 26.5t177 77.5l-6 -59q-108 -70 -225.5 -106t-241.5 -36
q-136 0 -207 104.5t-71 305.5q0 31 1.5 61.5t3.5 59.5h-180l23 61h164q6 45 15 88t22 84h-193l23 62h190q34 94 83.5 176t111.5 145q85 88 183 134.5t196 46.5q118 0 191 -36t73 -91z" />
    </font>
</defs>
</svg>
